{
  "accessors": [
    {
      "bufferView": 0,
      "componentType": 5126,
      "count": 2244,
      "max": [
        0.75,
        0.0,
        -2.2737367036103438e-15
      ],
      "min": [
        -0.75,
        0.0,
        -24.000001907348633
      ],
      "name": "Default/POSITION",
      "type": "VEC3"
    },
    {
      "bufferView": 0,
      "byteOffset": 12,
      "componentType": 5126,
      "count": 2244,
      "name": "Default/NORMAL",
      "type": "VEC3"
    },
    {
      "bufferView": 0,
      "byteOffset": 24,
      "componentType": 5126,
      "count": 2244,
      "name": "Default/TEXCOORD_0",
      "type": "VEC2"
    },
    {
      "bufferView": 1,
      "componentType": 5125,
      "count": 12000,
      "name": "Default/INDICES",
      "type": "SCALAR"
    }
  ],
  "asset": {
    "copyright": "Copyright (c) 2018-2020 Chukong Technologies Inc.",
    "generator": "FBX-glTF-conv",
    "version": "2.0"
  },
  "bufferViews": [
    {
      "buffer": 0,
      "byteLength": 71808,
      "byteStride": 32,
      "name": "Default",
      "target": 34962
    },
    {
      "buffer": 0,
      "byteLength": 48000,
      "byteOffset": 71808
    }
  ],
  "buffers": [
    {
      "byteLength": 119808,
      "uri": "out.bin"
    }
  ],
  "images": [
    {
      "extras": {
        "FBX-glTF-conv": {
          "fileName": "C:\\Users\\86152\\Desktop\\EulerLand\\temp\\asset-db\\assets\\fbx.FBX-glTF-conv\\23dafcec-fc75-40ff-bc9b-eb1137eb3f33\\output\\.fbm\\805D3741\\路面02.fbm/路面02.png",
          "relativeFileName": "..\\..\\..\\..\\..\\..\\temp\\asset-db\\assets\\fbx.FBX-glTF-conv\\23dafcec-fc75-40ff-bc9b-eb1137eb3f33\\output\\.fbm\\805D3741\\路面02.fbm\\路面02.png"
        }
      },
      "name": "路面02.png",
      "uri": "路面02.png"
    },
    {
      "extras": {
        "FBX-glTF-conv": {
          "fileName": "C:\\Users\\86152\\Desktop\\EulerLand\\temp\\asset-db\\assets\\fbx.FBX-glTF-conv\\23dafcec-fc75-40ff-bc9b-eb1137eb3f33\\output\\.fbm\\805D3741\\路面02.fbm/路面02.png",
          "relativeFileName": "..\\..\\..\\..\\..\\..\\temp\\asset-db\\assets\\fbx.FBX-glTF-conv\\23dafcec-fc75-40ff-bc9b-eb1137eb3f33\\output\\.fbm\\805D3741\\路面02.fbm\\路面02.png"
        }
      },
      "name": "路面02.png",
      "uri": "路面02.png"
    }
  ],
  "materials": [
    {
      "name": "材质",
      "normalTexture": {
        "index": 1
      },
      "pbrMetallicRoughness": {
        "baseColorTexture": {
          "index": 0
        },
        "metallicFactor": 0.4000000059604645,
        "roughnessFactor": 0.24253562092781067
      }
    }
  ],
  "meshes": [
    {
      "name": "Default",
      "primitives": [
        {
          "attributes": {
            "NORMAL": 1,
            "POSITION": 0,
            "TEXCOORD_0": 2
          },
          "indices": 3,
          "material": 0
        }
      ]
    }
  ],
  "nodes": [
    {
      "name": "Cinema_4D_编辑器",
      "rotation": [
        -0.10567719489336014,
        0.7008995413780212,
        -0.10516529530286789,
        0.6975044012069702
      ],
      "translation": [
        0.14349998533725739,
        2.3705949783325195,
        3.7137529850006104
      ]
    },
    {
      "mesh": 0,
      "name": "Default"
    }
  ],
  "samplers": [
    {}
  ],
  "scenes": [
    {
      "nodes": [
        0,
        1
      ]
    }
  ],
  "textures": [
    {
      "name": "路面02.png",
      "sampler": 0,
      "source": 0
    },
    {
      "name": "路面02.png",
      "sampler": 0,
      "source": 1
    }
  ]
}