{
  "accessors": [
    {
      "bufferView": 0,
      "componentType": 5126,
      "count": 131,
      "max": [
        0.420906662940979,
        0.1850472390651703,
        0.0723239928483963
      ],
      "min": [
        0.28558751940727234,
        0.1487310379743576,
        -0.06406967341899872
      ],
      "name": "仙人掌5_1_Material0/POSITION",
      "type": "VEC3"
    },
    {
      "bufferView": 0,
      "byteOffset": 12,
      "componentType": 5126,
      "count": 131,
      "name": "仙人掌5_1_Material0/NORMAL",
      "type": "VEC3"
    },
    {
      "bufferView": 0,
      "byteOffset": 24,
      "componentType": 5126,
      "count": 131,
      "name": "仙人掌5_1_Material0/TEXCOORD_0",
      "type": "VEC2"
    },
    {
      "bufferView": 1,
      "componentType": 5125,
      "count": 177,
      "name": "仙人掌5_1_Material0/INDICES",
      "type": "SCALAR"
    },
    {
      "bufferView": 2,
      "componentType": 5126,
      "count": 6360,
      "max": [
        0.4403184652328491,
        0.15973834693431854,
        0.09227713942527771
      ],
      "min": [
        0.25572270154953003,
        0.0,
        -0.09227713942527771
      ],
      "name": "仙人掌5_1_Material0/POSITION",
      "type": "VEC3"
    },
    {
      "bufferView": 2,
      "byteOffset": 12,
      "componentType": 5126,
      "count": 6360,
      "name": "仙人掌5_1_Material0/NORMAL",
      "type": "VEC3"
    },
    {
      "bufferView": 2,
      "byteOffset": 24,
      "componentType": 5126,
      "count": 6360,
      "name": "仙人掌5_1_Material0/TEXCOORD_0",
      "type": "VEC2"
    },
    {
      "bufferView": 3,
      "componentType": 5125,
      "count": 27360,
      "name": "仙人掌5_1_Material0/INDICES",
      "type": "SCALAR"
    },
    {
      "bufferView": 4,
      "componentType": 5126,
      "count": 6351,
      "max": [
        -0.21423469483852386,
        0.3627588152885437,
        0.10119079798460007
      ],
      "min": [
        -0.571000874042511,
        -0.02844429574906826,
        -0.05450160428881645
      ],
      "name": "仙人掌4_1_Material0/POSITION",
      "type": "VEC3"
    },
    {
      "bufferView": 4,
      "byteOffset": 12,
      "componentType": 5126,
      "count": 6351,
      "name": "仙人掌4_1_Material0/NORMAL",
      "type": "VEC3"
    },
    {
      "bufferView": 4,
      "byteOffset": 24,
      "componentType": 5126,
      "count": 6351,
      "name": "仙人掌4_1_Material0/TEXCOORD_0",
      "type": "VEC2"
    },
    {
      "bufferView": 5,
      "componentType": 5125,
      "count": 21546,
      "name": "仙人掌4_1_Material0/INDICES",
      "type": "SCALAR"
    },
    {
      "bufferView": 6,
      "componentType": 5126,
      "count": 131,
      "max": [
        -0.3008837401866913,
        0.36964207887649536,
        0.046843238174915314
      ],
      "min": [
        -0.3824896216392517,
        0.3241327702999115,
        -0.04202214255928993
      ],
      "name": "仙人掌4_1_Material0/POSITION",
      "type": "VEC3"
    },
    {
      "bufferView": 6,
      "byteOffset": 12,
      "componentType": 5126,
      "count": 131,
      "name": "仙人掌4_1_Material0/NORMAL",
      "type": "VEC3"
    },
    {
      "bufferView": 6,
      "byteOffset": 24,
      "componentType": 5126,
      "count": 131,
      "name": "仙人掌4_1_Material0/TEXCOORD_0",
      "type": "VEC2"
    },
    {
      "bufferView": 7,
      "componentType": 5125,
      "count": 177,
      "name": "仙人掌4_1_Material0/INDICES",
      "type": "SCALAR"
    },
    {
      "bufferView": 8,
      "componentType": 5126,
      "count": 6351,
      "max": [
        0.7927938103675842,
        0.3627588152885437,
        0.17238909006118774
      ],
      "min": [
        0.6304052472114563,
        -0.02844429574906826,
        -0.18437711894512177
      ],
      "name": "仙人掌3_1_Material0/POSITION",
      "type": "VEC3"
    },
    {
      "bufferView": 8,
      "byteOffset": 12,
      "componentType": 5126,
      "count": 6351,
      "name": "仙人掌3_1_Material0/NORMAL",
      "type": "VEC3"
    },
    {
      "bufferView": 8,
      "byteOffset": 24,
      "componentType": 5126,
      "count": 6351,
      "name": "仙人掌3_1_Material0/TEXCOORD_0",
      "type": "VEC2"
    },
    {
      "bufferView": 9,
      "componentType": 5125,
      "count": 21546,
      "name": "仙人掌3_1_Material0/INDICES",
      "type": "SCALAR"
    },
    {
      "bufferView": 10,
      "componentType": 5126,
      "count": 131,
      "max": [
        0.7998875975608826,
        0.3709307014942169,
        0.04558723792433739
      ],
      "min": [
        0.7182816863059998,
        0.32542142271995544,
        -0.04327814653515816
      ],
      "name": "仙人掌3_1_Material0/POSITION",
      "type": "VEC3"
    },
    {
      "bufferView": 10,
      "byteOffset": 12,
      "componentType": 5126,
      "count": 131,
      "name": "仙人掌3_1_Material0/NORMAL",
      "type": "VEC3"
    },
    {
      "bufferView": 10,
      "byteOffset": 24,
      "componentType": 5126,
      "count": 131,
      "name": "仙人掌3_1_Material0/TEXCOORD_0",
      "type": "VEC2"
    },
    {
      "bufferView": 11,
      "componentType": 5125,
      "count": 177,
      "name": "仙人掌3_1_Material0/INDICES",
      "type": "SCALAR"
    },
    {
      "bufferView": 12,
      "componentType": 5126,
      "count": 4238,
      "max": [
        -0.7823253870010376,
        0.3627588152885437,
        0.06169642135500908
      ],
      "min": [
        -1.0144007205963135,
        -0.02844429574906826,
        -0.14185859262943268
      ],
      "name": "仙人掌2_Material0/POSITION",
      "type": "VEC3"
    },
    {
      "bufferView": 12,
      "byteOffset": 12,
      "componentType": 5126,
      "count": 4238,
      "name": "仙人掌2_Material0/NORMAL",
      "type": "VEC3"
    },
    {
      "bufferView": 12,
      "byteOffset": 24,
      "componentType": 5126,
      "count": 4238,
      "name": "仙人掌2_Material0/TEXCOORD_0",
      "type": "VEC2"
    },
    {
      "bufferView": 13,
      "componentType": 5125,
      "count": 14364,
      "name": "仙人掌2_Material0/INDICES",
      "type": "SCALAR"
    },
    {
      "bufferView": 14,
      "componentType": 5126,
      "count": 131,
      "max": [
        -0.7764894962310791,
        0.371599018573761,
        0.00968574732542038
      ],
      "min": [
        -0.8630114793777466,
        0.3260897099971771,
        -0.07590822875499725
      ],
      "name": "仙人掌2_Material0/POSITION",
      "type": "VEC3"
    },
    {
      "bufferView": 14,
      "byteOffset": 12,
      "componentType": 5126,
      "count": 131,
      "name": "仙人掌2_Material0/NORMAL",
      "type": "VEC3"
    },
    {
      "bufferView": 14,
      "byteOffset": 24,
      "componentType": 5126,
      "count": 131,
      "name": "仙人掌2_Material0/TEXCOORD_0",
      "type": "VEC2"
    },
    {
      "bufferView": 15,
      "componentType": 5125,
      "count": 177,
      "name": "仙人掌2_Material0/INDICES",
      "type": "SCALAR"
    },
    {
      "bufferView": 16,
      "componentType": 5126,
      "count": 2119,
      "max": [
        0.06237431988120079,
        0.3226831555366516,
        0.06551901996135712
      ],
      "min": [
        -0.07249274104833603,
        -0.02844429574906826,
        -0.05450160428881645
      ],
      "name": "仙人掌1_1_Material0/POSITION",
      "type": "VEC3"
    },
    {
      "bufferView": 16,
      "byteOffset": 12,
      "componentType": 5126,
      "count": 2119,
      "name": "仙人掌1_1_Material0/NORMAL",
      "type": "VEC3"
    },
    {
      "bufferView": 16,
      "byteOffset": 24,
      "componentType": 5126,
      "count": 2119,
      "name": "仙人掌1_1_Material0/TEXCOORD_0",
      "type": "VEC2"
    },
    {
      "bufferView": 17,
      "componentType": 5125,
      "count": 7182,
      "name": "仙人掌1_1_Material0/INDICES",
      "type": "SCALAR"
    },
    {
      "bufferView": 18,
      "componentType": 5126,
      "count": 131,
      "max": [
        0.038908034563064575,
        0.32079216837882996,
        0.04826073348522186
      ],
      "min": [
        -0.05399419739842415,
        0.29722195863723755,
        -0.040919408202171326
      ],
      "name": "仙人掌1_1_Material0/POSITION",
      "type": "VEC3"
    },
    {
      "bufferView": 18,
      "byteOffset": 12,
      "componentType": 5126,
      "count": 131,
      "name": "仙人掌1_1_Material0/NORMAL",
      "type": "VEC3"
    },
    {
      "bufferView": 18,
      "byteOffset": 24,
      "componentType": 5126,
      "count": 131,
      "name": "仙人掌1_1_Material0/TEXCOORD_0",
      "type": "VEC2"
    },
    {
      "bufferView": 19,
      "componentType": 5125,
      "count": 177,
      "name": "仙人掌1_1_Material0/INDICES",
      "type": "SCALAR"
    }
  ],
  "asset": {
    "copyright": "Copyright (c) 2018-2020 Chukong Technologies Inc.",
    "generator": "FBX-glTF-conv",
    "version": "2.0"
  },
  "bufferViews": [
    {
      "buffer": 0,
      "byteLength": 4192,
      "byteStride": 32,
      "name": "仙人掌5_1_Material0",
      "target": 34962
    },
    {
      "buffer": 0,
      "byteLength": 708,
      "byteOffset": 4192
    },
    {
      "buffer": 0,
      "byteLength": 203520,
      "byteOffset": 4900,
      "byteStride": 32,
      "name": "仙人掌5_1_Material0",
      "target": 34962
    },
    {
      "buffer": 0,
      "byteLength": 109440,
      "byteOffset": 208420
    },
    {
      "buffer": 0,
      "byteLength": 203232,
      "byteOffset": 317860,
      "byteStride": 32,
      "name": "仙人掌4_1_Material0",
      "target": 34962
    },
    {
      "buffer": 0,
      "byteLength": 86184,
      "byteOffset": 521092
    },
    {
      "buffer": 0,
      "byteLength": 4192,
      "byteOffset": 607276,
      "byteStride": 32,
      "name": "仙人掌4_1_Material0",
      "target": 34962
    },
    {
      "buffer": 0,
      "byteLength": 708,
      "byteOffset": 611468
    },
    {
      "buffer": 0,
      "byteLength": 203232,
      "byteOffset": 612176,
      "byteStride": 32,
      "name": "仙人掌3_1_Material0",
      "target": 34962
    },
    {
      "buffer": 0,
      "byteLength": 86184,
      "byteOffset": 815408
    },
    {
      "buffer": 0,
      "byteLength": 4192,
      "byteOffset": 901592,
      "byteStride": 32,
      "name": "仙人掌3_1_Material0",
      "target": 34962
    },
    {
      "buffer": 0,
      "byteLength": 708,
      "byteOffset": 905784
    },
    {
      "buffer": 0,
      "byteLength": 135616,
      "byteOffset": 906492,
      "byteStride": 32,
      "name": "仙人掌2_Material0",
      "target": 34962
    },
    {
      "buffer": 0,
      "byteLength": 57456,
      "byteOffset": 1042108
    },
    {
      "buffer": 0,
      "byteLength": 4192,
      "byteOffset": 1099564,
      "byteStride": 32,
      "name": "仙人掌2_Material0",
      "target": 34962
    },
    {
      "buffer": 0,
      "byteLength": 708,
      "byteOffset": 1103756
    },
    {
      "buffer": 0,
      "byteLength": 67808,
      "byteOffset": 1104464,
      "byteStride": 32,
      "name": "仙人掌1_1_Material0",
      "target": 34962
    },
    {
      "buffer": 0,
      "byteLength": 28728,
      "byteOffset": 1172272
    },
    {
      "buffer": 0,
      "byteLength": 4192,
      "byteOffset": 1201000,
      "byteStride": 32,
      "name": "仙人掌1_1_Material0",
      "target": 34962
    },
    {
      "buffer": 0,
      "byteLength": 708,
      "byteOffset": 1205192
    }
  ],
  "buffers": [
    {
      "byteLength": 1205900,
      "uri": "out.bin"
    }
  ],
  "materials": [
    {
      "name": "材质.1",
      "pbrMetallicRoughness": {
        "baseColorFactor": [
          0.9300000071525574,
          0.8834999799728394,
          0.0,
          1.0
        ],
        "metallicFactor": 0.4000000059604645,
        "roughnessFactor": 0.24253562092781067
      }
    },
    {
      "name": "default",
      "pbrMetallicRoughness": {
        "baseColorFactor": [
          0.21568627655506134,
          0.6705882549285889,
          0.15294118225574493,
          1.0
        ],
        "metallicFactor": 0.4000000059604645,
        "roughnessFactor": 0.24253562092781067
      }
    }
  ],
  "meshes": [
    {
      "name": "仙人掌5_1_Material0",
      "primitives": [
        {
          "attributes": {
            "NORMAL": 1,
            "POSITION": 0,
            "TEXCOORD_0": 2
          },
          "indices": 3,
          "material": 0
        },
        {
          "attributes": {
            "NORMAL": 5,
            "POSITION": 4,
            "TEXCOORD_0": 6
          },
          "indices": 7,
          "material": 1
        }
      ]
    },
    {
      "name": "仙人掌4_1_Material0",
      "primitives": [
        {
          "attributes": {
            "NORMAL": 9,
            "POSITION": 8,
            "TEXCOORD_0": 10
          },
          "indices": 11,
          "material": 1
        },
        {
          "attributes": {
            "NORMAL": 13,
            "POSITION": 12,
            "TEXCOORD_0": 14
          },
          "indices": 15,
          "material": 0
        }
      ]
    },
    {
      "name": "仙人掌3_1_Material0",
      "primitives": [
        {
          "attributes": {
            "NORMAL": 17,
            "POSITION": 16,
            "TEXCOORD_0": 18
          },
          "indices": 19,
          "material": 1
        },
        {
          "attributes": {
            "NORMAL": 21,
            "POSITION": 20,
            "TEXCOORD_0": 22
          },
          "indices": 23,
          "material": 0
        }
      ]
    },
    {
      "name": "仙人掌2_Material0",
      "primitives": [
        {
          "attributes": {
            "NORMAL": 25,
            "POSITION": 24,
            "TEXCOORD_0": 26
          },
          "indices": 27,
          "material": 1
        },
        {
          "attributes": {
            "NORMAL": 29,
            "POSITION": 28,
            "TEXCOORD_0": 30
          },
          "indices": 31,
          "material": 0
        }
      ]
    },
    {
      "name": "仙人掌1_1_Material0",
      "primitives": [
        {
          "attributes": {
            "NORMAL": 33,
            "POSITION": 32,
            "TEXCOORD_0": 34
          },
          "indices": 35,
          "material": 1
        },
        {
          "attributes": {
            "NORMAL": 37,
            "POSITION": 36,
            "TEXCOORD_0": 38
          },
          "indices": 39,
          "material": 0
        }
      ]
    }
  ],
  "nodes": [
    {
      "name": "Cinema_4D_编辑器",
      "rotation": [
        -0.15606123208999634,
        0.9106032252311707,
        -0.06464267522096634,
        0.3771842122077942
      ],
      "translation": [
        1.338441252708435,
        0.8935744762420654,
        1.4397038221359253
      ]
    },
    {
      "children": [
        2,
        3,
        4,
        5,
        6
      ],
      "name": "仙人掌_obj"
    },
    {
      "mesh": 0,
      "name": "仙人掌5_1"
    },
    {
      "mesh": 1,
      "name": "仙人掌4_1"
    },
    {
      "mesh": 2,
      "name": "仙人掌3_1"
    },
    {
      "mesh": 3,
      "name": "仙人掌2"
    },
    {
      "mesh": 4,
      "name": "仙人掌1_1"
    }
  ],
  "scenes": [
    {
      "nodes": [
        0,
        1
      ]
    }
  ]
}