{
  "accessors": [
    {
      "bufferView": 0,
      "componentType": 5126,
      "count": 1730,
      "max": [
        1.8664990663528442,
        0.38285866379737854,
        -1.5630968809127808
      ],
      "min": [
        0.5805454254150391,
        -0.8027202486991882,
        -3.227890968322754
      ],
      "name": "云1_1/POSITION",
      "type": "VEC3"
    },
    {
      "bufferView": 0,
      "byteOffset": 12,
      "componentType": 5126,
      "count": 1730,
      "name": "云1_1/NORMAL",
      "type": "VEC3"
    },
    {
      "bufferView": 0,
      "byteOffset": 24,
      "componentType": 5126,
      "count": 1730,
      "name": "云1_1/TEXCOORD_0",
      "type": "VEC2"
    },
    {
      "bufferView": 1,
      "componentType": 5125,
      "count": 9216,
      "name": "云1_1/INDICES",
      "type": "SCALAR"
    },
    {
      "bufferView": 2,
      "componentType": 5126,
      "count": 1734,
      "max": [
        -0.8486183881759644,
        0.28487589955329895,
        0.5651294589042664
      ],
      "min": [
        -2.200101852416992,
        -0.7809256911277771,
        -0.8113651871681213
      ],
      "name": "球体/POSITION",
      "type": "VEC3"
    },
    {
      "bufferView": 2,
      "byteOffset": 12,
      "componentType": 5126,
      "count": 1734,
      "name": "球体/NORMAL",
      "type": "VEC3"
    },
    {
      "bufferView": 2,
      "byteOffset": 24,
      "componentType": 5126,
      "count": 1734,
      "name": "球体/TEXCOORD_0",
      "type": "VEC2"
    },
    {
      "bufferView": 3,
      "componentType": 5125,
      "count": 9216,
      "name": "球体/INDICES",
      "type": "SCALAR"
    },
    {
      "bufferView": 4,
      "componentType": 5126,
      "count": 1734,
      "max": [
        0.9642263054847717,
        1.1730200052261353,
        -0.7613915205001831
      ],
      "min": [
        -2.8634655475616455,
        -1.2716763019561768,
        -2.967498540878296
      ],
      "name": "球体_1/POSITION",
      "type": "VEC3"
    },
    {
      "bufferView": 4,
      "byteOffset": 12,
      "componentType": 5126,
      "count": 1734,
      "name": "球体_1/NORMAL",
      "type": "VEC3"
    },
    {
      "bufferView": 4,
      "byteOffset": 24,
      "componentType": 5126,
      "count": 1734,
      "name": "球体_1/TEXCOORD_0",
      "type": "VEC2"
    },
    {
      "bufferView": 5,
      "componentType": 5125,
      "count": 9216,
      "name": "球体_1/INDICES",
      "type": "SCALAR"
    },
    {
      "bufferView": 6,
      "componentType": 5126,
      "count": 559,
      "max": [
        -0.6060418486595154,
        0.027103252708911896,
        0.5738193392753601
      ],
      "min": [
        -0.660248339176178,
        -0.027103252708911896,
        0.5196127891540527
      ],
      "name": "灯/POSITION",
      "type": "VEC3"
    },
    {
      "bufferView": 6,
      "byteOffset": 12,
      "componentType": 5126,
      "count": 559,
      "name": "灯/NORMAL",
      "type": "VEC3"
    },
    {
      "bufferView": 6,
      "byteOffset": 24,
      "componentType": 5126,
      "count": 559,
      "name": "灯/TEXCOORD_0",
      "type": "VEC2"
    },
    {
      "bufferView": 7,
      "componentType": 5125,
      "count": 2880,
      "name": "灯/INDICES",
      "type": "SCALAR"
    },
    {
      "bufferView": 8,
      "componentType": 5126,
      "count": 336,
      "max": [
        0.6204254031181335,
        0.05983200669288635,
        0.5606103539466858
      ],
      "min": [
        -0.46402907371520996,
        -0.05983200669288635,
        0.482438862323761
      ],
      "name": "克隆/POSITION",
      "type": "VEC3"
    },
    {
      "bufferView": 8,
      "byteOffset": 12,
      "componentType": 5126,
      "count": 336,
      "name": "克隆/NORMAL",
      "type": "VEC3"
    },
    {
      "bufferView": 8,
      "byteOffset": 24,
      "componentType": 5126,
      "count": 336,
      "name": "克隆/TEXCOORD_0",
      "type": "VEC2"
    },
    {
      "bufferView": 9,
      "componentType": 5125,
      "count": 504,
      "name": "克隆/INDICES",
      "type": "SCALAR"
    },
    {
      "bufferView": 10,
      "componentType": 5126,
      "count": 445,
      "max": [
        1.0000001192092896,
        0.22259798645973206,
        0.5744867920875549
      ],
      "min": [
        -1.0000004768371582,
        -0.22259798645973206,
        -0.5744867920875549
      ],
      "name": "布尔_1/POSITION",
      "type": "VEC3"
    },
    {
      "bufferView": 10,
      "byteOffset": 12,
      "componentType": 5126,
      "count": 445,
      "name": "布尔_1/NORMAL",
      "type": "VEC3"
    },
    {
      "bufferView": 10,
      "byteOffset": 24,
      "componentType": 5126,
      "count": 445,
      "name": "布尔_1/TEXCOORD_0",
      "type": "VEC2"
    },
    {
      "bufferView": 11,
      "componentType": 5125,
      "count": 1422,
      "name": "布尔_1/INDICES",
      "type": "SCALAR"
    },
    {
      "bufferView": 12,
      "componentType": 5126,
      "count": 559,
      "max": [
        -0.6060418486595154,
        -0.5439286231994629,
        0.5738193392753601
      ],
      "min": [
        -0.660248339176178,
        -0.5981351733207703,
        0.5196127891540527
      ],
      "name": "灯_1/POSITION",
      "type": "VEC3"
    },
    {
      "bufferView": 12,
      "byteOffset": 12,
      "componentType": 5126,
      "count": 559,
      "name": "灯_1/NORMAL",
      "type": "VEC3"
    },
    {
      "bufferView": 12,
      "byteOffset": 24,
      "componentType": 5126,
      "count": 559,
      "name": "灯_1/TEXCOORD_0",
      "type": "VEC2"
    },
    {
      "bufferView": 13,
      "componentType": 5125,
      "count": 2880,
      "name": "灯_1/INDICES",
      "type": "SCALAR"
    },
    {
      "bufferView": 14,
      "componentType": 5126,
      "count": 336,
      "max": [
        0.6204254031181335,
        -0.5111998915672302,
        0.5606103539466858
      ],
      "min": [
        -0.46402907371520996,
        -0.6308639049530029,
        0.482438862323761
      ],
      "name": "克隆_1/POSITION",
      "type": "VEC3"
    },
    {
      "bufferView": 14,
      "byteOffset": 12,
      "componentType": 5126,
      "count": 336,
      "name": "克隆_1/NORMAL",
      "type": "VEC3"
    },
    {
      "bufferView": 14,
      "byteOffset": 24,
      "componentType": 5126,
      "count": 336,
      "name": "克隆_1/TEXCOORD_0",
      "type": "VEC2"
    },
    {
      "bufferView": 15,
      "componentType": 5125,
      "count": 504,
      "name": "克隆_1/INDICES",
      "type": "SCALAR"
    },
    {
      "bufferView": 16,
      "componentType": 5126,
      "count": 449,
      "max": [
        1.0000001192092896,
        -0.3484339118003845,
        0.5744867920875549
      ],
      "min": [
        -1.0000004768371582,
        -0.7936298847198486,
        -0.5744867920875549
      ],
      "name": "布尔/POSITION",
      "type": "VEC3"
    },
    {
      "bufferView": 16,
      "byteOffset": 12,
      "componentType": 5126,
      "count": 449,
      "name": "布尔/NORMAL",
      "type": "VEC3"
    },
    {
      "bufferView": 16,
      "byteOffset": 24,
      "componentType": 5126,
      "count": 449,
      "name": "布尔/TEXCOORD_0",
      "type": "VEC2"
    },
    {
      "bufferView": 17,
      "componentType": 5125,
      "count": 1422,
      "name": "布尔/INDICES",
      "type": "SCALAR"
    }
  ],
  "asset": {
    "copyright": "Copyright (c) 2018-2020 Chukong Technologies Inc.",
    "generator": "FBX-glTF-conv",
    "version": "2.0"
  },
  "bufferViews": [
    {
      "buffer": 0,
      "byteLength": 55360,
      "byteStride": 32,
      "name": "云1_1",
      "target": 34962
    },
    {
      "buffer": 0,
      "byteLength": 36864,
      "byteOffset": 55360
    },
    {
      "buffer": 0,
      "byteLength": 55488,
      "byteOffset": 92224,
      "byteStride": 32,
      "name": "球体",
      "target": 34962
    },
    {
      "buffer": 0,
      "byteLength": 36864,
      "byteOffset": 147712
    },
    {
      "buffer": 0,
      "byteLength": 55488,
      "byteOffset": 184576,
      "byteStride": 32,
      "name": "球体_1",
      "target": 34962
    },
    {
      "buffer": 0,
      "byteLength": 36864,
      "byteOffset": 240064
    },
    {
      "buffer": 0,
      "byteLength": 17888,
      "byteOffset": 276928,
      "byteStride": 32,
      "name": "灯",
      "target": 34962
    },
    {
      "buffer": 0,
      "byteLength": 11520,
      "byteOffset": 294816
    },
    {
      "buffer": 0,
      "byteLength": 10752,
      "byteOffset": 306336,
      "byteStride": 32,
      "name": "克隆",
      "target": 34962
    },
    {
      "buffer": 0,
      "byteLength": 2016,
      "byteOffset": 317088
    },
    {
      "buffer": 0,
      "byteLength": 14240,
      "byteOffset": 319104,
      "byteStride": 32,
      "name": "布尔_1",
      "target": 34962
    },
    {
      "buffer": 0,
      "byteLength": 5688,
      "byteOffset": 333344
    },
    {
      "buffer": 0,
      "byteLength": 17888,
      "byteOffset": 339032,
      "byteStride": 32,
      "name": "灯_1",
      "target": 34962
    },
    {
      "buffer": 0,
      "byteLength": 11520,
      "byteOffset": 356920
    },
    {
      "buffer": 0,
      "byteLength": 10752,
      "byteOffset": 368440,
      "byteStride": 32,
      "name": "克隆_1",
      "target": 34962
    },
    {
      "buffer": 0,
      "byteLength": 2016,
      "byteOffset": 379192
    },
    {
      "buffer": 0,
      "byteLength": 14368,
      "byteOffset": 381208,
      "byteStride": 32,
      "name": "布尔",
      "target": 34962
    },
    {
      "buffer": 0,
      "byteLength": 5688,
      "byteOffset": 395576
    }
  ],
  "buffers": [
    {
      "byteLength": 401264,
      "uri": "out.bin"
    }
  ],
  "materials": [
    {
      "name": "default",
      "pbrMetallicRoughness": {
        "metallicFactor": 0.4000000059604645,
        "roughnessFactor": 0.24253562092781067
      }
    },
    {
      "name": "材质",
      "pbrMetallicRoughness": {
        "baseColorFactor": [
          1.0,
          0.0,
          0.0,
          1.0
        ],
        "metallicFactor": 0.4000000059604645,
        "roughnessFactor": 0.24253562092781067
      }
    },
    {
      "name": "材质.1",
      "pbrMetallicRoughness": {
        "baseColorFactor": [
          0.5199999809265137,
          0.5199999809265137,
          0.5199999809265137,
          1.0
        ],
        "metallicFactor": 0.4000000059604645,
        "roughnessFactor": 0.24253562092781067
      }
    },
    {
      "name": "材质.1_1",
      "pbrMetallicRoughness": {
        "baseColorFactor": [
          0.5199999809265137,
          0.5199999809265137,
          0.5199999809265137,
          1.0
        ],
        "metallicFactor": 0.4000000059604645,
        "roughnessFactor": 0.24253562092781067
      }
    },
    {
      "name": "材质.1_2",
      "pbrMetallicRoughness": {
        "baseColorFactor": [
          0.1764705926179886,
          0.3921568691730499,
          0.95686274766922,
          1.0
        ],
        "metallicFactor": 0.4000000059604645,
        "roughnessFactor": 0.24253562092781067
      }
    }
  ],
  "meshes": [
    {
      "name": "云1_1",
      "primitives": [
        {
          "attributes": {
            "NORMAL": 1,
            "POSITION": 0,
            "TEXCOORD_0": 2
          },
          "indices": 3,
          "material": 0
        }
      ]
    },
    {
      "name": "球体",
      "primitives": [
        {
          "attributes": {
            "NORMAL": 5,
            "POSITION": 4,
            "TEXCOORD_0": 6
          },
          "indices": 7,
          "material": 0
        }
      ]
    },
    {
      "name": "球体_1",
      "primitives": [
        {
          "attributes": {
            "NORMAL": 9,
            "POSITION": 8,
            "TEXCOORD_0": 10
          },
          "indices": 11,
          "material": 0
        }
      ]
    },
    {
      "name": "灯",
      "primitives": [
        {
          "attributes": {
            "NORMAL": 13,
            "POSITION": 12,
            "TEXCOORD_0": 14
          },
          "indices": 15,
          "material": 1
        }
      ]
    },
    {
      "name": "克隆",
      "primitives": [
        {
          "attributes": {
            "NORMAL": 17,
            "POSITION": 16,
            "TEXCOORD_0": 18
          },
          "indices": 19,
          "material": 2
        }
      ]
    },
    {
      "name": "布尔_1",
      "primitives": [
        {
          "attributes": {
            "NORMAL": 21,
            "POSITION": 20,
            "TEXCOORD_0": 22
          },
          "indices": 23,
          "material": 3
        }
      ]
    },
    {
      "name": "灯_1",
      "primitives": [
        {
          "attributes": {
            "NORMAL": 25,
            "POSITION": 24,
            "TEXCOORD_0": 26
          },
          "indices": 27,
          "material": 1
        }
      ]
    },
    {
      "name": "克隆_1",
      "primitives": [
        {
          "attributes": {
            "NORMAL": 29,
            "POSITION": 28,
            "TEXCOORD_0": 30
          },
          "indices": 31,
          "material": 4
        }
      ]
    },
    {
      "name": "布尔",
      "primitives": [
        {
          "attributes": {
            "NORMAL": 33,
            "POSITION": 32,
            "TEXCOORD_0": 34
          },
          "indices": 35,
          "material": 4
        }
      ]
    }
  ],
  "nodes": [
    {
      "name": "Cinema_4D_编辑器",
      "rotation": [
        -0.15606123208999634,
        0.9106032252311707,
        -0.06464267522096634,
        0.3771842122077942
      ],
      "translation": [
        5.541836261749268,
        2.761575698852539,
        4.079891681671143
      ]
    },
    {
      "children": [
        2,
        3,
        4,
        5,
        6,
        7,
        8,
        9,
        10
      ],
      "name": "机柜01_obj"
    },
    {
      "mesh": 0,
      "name": "云1_1"
    },
    {
      "mesh": 1,
      "name": "球体"
    },
    {
      "mesh": 2,
      "name": "球体_1"
    },
    {
      "mesh": 3,
      "name": "灯"
    },
    {
      "mesh": 4,
      "name": "克隆"
    },
    {
      "mesh": 5,
      "name": "布尔_1"
    },
    {
      "mesh": 6,
      "name": "灯_1"
    },
    {
      "mesh": 7,
      "name": "克隆_1"
    },
    {
      "mesh": 8,
      "name": "布尔"
    }
  ],
  "scenes": [
    {
      "nodes": [
        0,
        1
      ]
    }
  ]
}