{
  "accessors": [
    {
      "bufferView": 0,
      "componentType": 5126,
      "count": 2547,
      "max": [
        0.8293151259422302,
        1.8042982816696167,
        0.7398020029067993
      ],
      "min": [
        -0.8293151259422302,
        0.0,
        -0.7398020029067993
      ],
      "name": "Default/POSITION",
      "type": "VEC3"
    },
    {
      "bufferView": 0,
      "byteOffset": 12,
      "componentType": 5126,
      "count": 2547,
      "name": "Default/NORMAL",
      "type": "VEC3"
    },
    {
      "bufferView": 0,
      "byteOffset": 24,
      "componentType": 5126,
      "count": 2547,
      "name": "Default/TEXCOORD_0",
      "type": "VEC2"
    },
    {
      "bufferView": 1,
      "componentType": 5125,
      "count": 11268,
      "name": "Default/INDICES",
      "type": "SCALAR"
    }
  ],
  "asset": {
    "copyright": "Copyright (c) 2018-2020 Chukong Technologies Inc.",
    "generator": "FBX-glTF-conv",
    "version": "2.0"
  },
  "bufferViews": [
    {
      "buffer": 0,
      "byteLength": 81504,
      "byteStride": 32,
      "name": "Default",
      "target": 34962
    },
    {
      "buffer": 0,
      "byteLength": 45072,
      "byteOffset": 81504
    }
  ],
  "buffers": [
    {
      "byteLength": 126576,
      "uri": "out.bin"
    }
  ],
  "images": [
    {
      "extras": {
        "FBX-glTF-conv": {
          "fileName": "C:\\Users\\86152\\Desktop\\EulerLand\\temp\\asset-db\\assets\\fbx.FBX-glTF-conv\\688d5e38-2bc3-4d79-8852-349f2b67757c\\output\\.fbm\\9E6E34A8\\树1.fbm/树1.png",
          "relativeFileName": "..\\..\\..\\..\\..\\..\\temp\\asset-db\\assets\\fbx.FBX-glTF-conv\\688d5e38-2bc3-4d79-8852-349f2b67757c\\output\\.fbm\\9E6E34A8\\树1.fbm\\树1.png"
        }
      },
      "name": "树1.png",
      "uri": "树1.png"
    }
  ],
  "materials": [
    {
      "name": "材质",
      "pbrMetallicRoughness": {
        "baseColorTexture": {
          "index": 0
        },
        "metallicFactor": 0.4000000059604645,
        "roughnessFactor": 0.24253562092781067
      }
    }
  ],
  "meshes": [
    {
      "name": "Default",
      "primitives": [
        {
          "attributes": {
            "NORMAL": 1,
            "POSITION": 0,
            "TEXCOORD_0": 2
          },
          "indices": 3,
          "material": 0
        }
      ]
    }
  ],
  "nodes": [
    {
      "name": "Cinema_4D_编辑器",
      "rotation": [
        0.043388206511735916,
        -0.26544034481048584,
        -0.15537217259407043,
        0.9505358338356018
      ],
      "translation": [
        -3.7191412448883057,
        2.2332653999328613,
        -2.0624775886535645
      ]
    },
    {
      "mesh": 0,
      "name": "Default"
    }
  ],
  "samplers": [
    {}
  ],
  "scenes": [
    {
      "nodes": [
        0,
        1
      ]
    }
  ],
  "textures": [
    {
      "name": "树1.png",
      "sampler": 0,
      "source": 0
    }
  ]
}