{
  "accessors": [
    {
      "bufferView": 0,
      "componentType": 5126,
      "count": 1069,
      "max": [
        3.8650951385498047,
        0.2297985851764679,
        0.271668940782547
      ],
      "min": [
        -3.6668920516967773,
        -0.22786909341812134,
        -0.35298383235931396
      ],
      "name": "藤条/POSITION",
      "type": "VEC3"
    },
    {
      "bufferView": 0,
      "byteOffset": 12,
      "componentType": 5126,
      "count": 1069,
      "name": "藤条/NORMAL",
      "type": "VEC3"
    },
    {
      "bufferView": 0,
      "byteOffset": 24,
      "componentType": 5126,
      "count": 1069,
      "name": "藤条/TEXCOORD_0",
      "type": "VEC2"
    },
    {
      "bufferView": 1,
      "componentType": 5125,
      "count": 5604,
      "name": "藤条/INDICES",
      "type": "SCALAR"
    },
    {
      "bufferView": 2,
      "componentType": 5126,
      "count": 1139,
      "max": [
        4.225454807281494,
        0.2034764438867569,
        0.1591390073299408
      ],
      "min": [
        -4.225452899932861,
        -0.2034764438867569,
        -0.1591390073299408
      ],
      "name": "Default_Material1/POSITION",
      "type": "VEC3"
    },
    {
      "bufferView": 2,
      "byteOffset": 12,
      "componentType": 5126,
      "count": 1139,
      "name": "Default_Material1/NORMAL",
      "type": "VEC3"
    },
    {
      "bufferView": 2,
      "byteOffset": 24,
      "componentType": 5126,
      "count": 1139,
      "name": "Default_Material1/TEXCOORD_0",
      "type": "VEC2"
    },
    {
      "bufferView": 3,
      "componentType": 5125,
      "count": 6144,
      "name": "Default_Material1/INDICES",
      "type": "SCALAR"
    }
  ],
  "asset": {
    "copyright": "Copyright (c) 2018-2020 Chukong Technologies Inc.",
    "generator": "FBX-glTF-conv",
    "version": "2.0"
  },
  "bufferViews": [
    {
      "buffer": 0,
      "byteLength": 34208,
      "byteStride": 32,
      "name": "藤条",
      "target": 34962
    },
    {
      "buffer": 0,
      "byteLength": 22416,
      "byteOffset": 34208
    },
    {
      "buffer": 0,
      "byteLength": 36448,
      "byteOffset": 56624,
      "byteStride": 32,
      "name": "Default_Material1",
      "target": 34962
    },
    {
      "buffer": 0,
      "byteLength": 24576,
      "byteOffset": 93072
    }
  ],
  "buffers": [
    {
      "byteLength": 117648,
      "uri": "out.bin"
    }
  ],
  "images": [
    {
      "extras": {
        "FBX-glTF-conv": {
          "fileName": "C:\\Users\\86152\\Desktop\\EulerLand\\temp\\asset-db\\assets\\fbx.FBX-glTF-conv\\4fdb6d21-f5ab-4e0d-ab37-1bff4025a824\\output\\.fbm\\7E943728\\木头01.fbm/WoodFine03_COL_VAR1_HIRES.jpg",
          "relativeFileName": "..\\..\\..\\..\\..\\..\\temp\\asset-db\\assets\\fbx.FBX-glTF-conv\\4fdb6d21-f5ab-4e0d-ab37-1bff4025a824\\output\\.fbm\\7E943728\\木头01.fbm\\WoodFine03_COL_VAR1_HIRES.jpg"
        }
      },
      "name": "WoodFine03_COL_VAR1_HIRES.jpg",
      "uri": "WoodFine03_COL_VAR1_HIRES.jpg"
    }
  ],
  "materials": [
    {
      "name": "Archmodels61_001_leaf2",
      "pbrMetallicRoughness": {
        "baseColorFactor": [
          0.20055556297302246,
          0.5699999928474426,
          0.30611109733581543,
          1.0
        ],
        "metallicFactor": 0.4000000059604645,
        "roughnessFactor": 0.24253562092781067
      }
    },
    {
      "name": "材质",
      "pbrMetallicRoughness": {
        "baseColorTexture": {
          "index": 0
        },
        "metallicFactor": 0.4000000059604645,
        "roughnessFactor": 0.24253562092781067
      }
    }
  ],
  "meshes": [
    {
      "name": "藤条",
      "primitives": [
        {
          "attributes": {
            "NORMAL": 1,
            "POSITION": 0,
            "TEXCOORD_0": 2
          },
          "indices": 3,
          "material": 0
        }
      ]
    },
    {
      "name": "Default_Material1",
      "primitives": [
        {
          "attributes": {
            "NORMAL": 5,
            "POSITION": 4,
            "TEXCOORD_0": 6
          },
          "indices": 7,
          "material": 1
        }
      ]
    }
  ],
  "nodes": [
    {
      "name": "Cinema_4D_编辑器",
      "rotation": [
        -0.15606123208999634,
        0.9106032252311707,
        -0.06464267522096634,
        0.3771842122077942
      ],
      "translation": [
        6.18241024017334,
        3.088526964187622,
        6.141751766204834
      ]
    },
    {
      "children": [
        2,
        3
      ],
      "name": "木头01_obj"
    },
    {
      "mesh": 0,
      "name": "藤条"
    },
    {
      "mesh": 1,
      "name": "Default"
    }
  ],
  "samplers": [
    {}
  ],
  "scenes": [
    {
      "nodes": [
        0,
        1
      ]
    }
  ],
  "textures": [
    {
      "name": "WoodFine03_COL_VAR1_HIRES.jpg",
      "sampler": 0,
      "source": 0
    }
  ]
}