{
  "accessors": [
    {
      "bufferView": 0,
      "componentType": 5126,
      "count": 21069,
      "max": [
        0.1805681437253952,
        0.10002122819423676,
        1.4440293312072754
      ],
      "min": [
        -0.15844237804412842,
        -0.24615705013275146,
        1.0896196365356445
      ],
      "name": "草1/POSITION",
      "type": "VEC3"
    },
    {
      "bufferView": 0,
      "byteOffset": 12,
      "componentType": 5126,
      "count": 21069,
      "name": "草1/NORMAL",
      "type": "VEC3"
    },
    {
      "bufferView": 0,
      "byteOffset": 24,
      "componentType": 5126,
      "count": 21069,
      "name": "草1/TEXCOORD_0",
      "type": "VEC2"
    },
    {
      "bufferView": 1,
      "componentType": 5125,
      "count": 90729,
      "name": "草1/INDICES",
      "type": "SCALAR"
    },
    {
      "bufferView": 2,
      "componentType": 5126,
      "count": 21072,
      "max": [
        0.4338316321372986,
        -0.006343120243400335,
        0.9895329475402832
      ],
      "min": [
        0.2015475034713745,
        -0.243538498878479,
        0.7466975450515747
      ],
      "name": "草2/POSITION",
      "type": "VEC3"
    },
    {
      "bufferView": 2,
      "byteOffset": 12,
      "componentType": 5126,
      "count": 21072,
      "name": "草2/NORMAL",
      "type": "VEC3"
    },
    {
      "bufferView": 2,
      "byteOffset": 24,
      "componentType": 5126,
      "count": 21072,
      "name": "草2/TEXCOORD_0",
      "type": "VEC2"
    },
    {
      "bufferView": 3,
      "componentType": 5125,
      "count": 90729,
      "name": "草2/INDICES",
      "type": "SCALAR"
    },
    {
      "bufferView": 4,
      "componentType": 5126,
      "count": 400,
      "max": [
        0.3801770508289337,
        0.16283784806728363,
        1.3135353326797485
      ],
      "min": [
        -0.4220331907272339,
        -0.28361380100250244,
        0.7018557190895081
      ],
      "name": "SM_Rock_08_LOD0_1/POSITION",
      "type": "VEC3"
    },
    {
      "bufferView": 4,
      "byteOffset": 12,
      "componentType": 5126,
      "count": 400,
      "name": "SM_Rock_08_LOD0_1/NORMAL",
      "type": "VEC3"
    },
    {
      "bufferView": 4,
      "byteOffset": 24,
      "componentType": 5126,
      "count": 400,
      "name": "SM_Rock_08_LOD0_1/TEXCOORD_0",
      "type": "VEC2"
    },
    {
      "bufferView": 5,
      "componentType": 5125,
      "count": 918,
      "name": "SM_Rock_08_LOD0_1/INDICES",
      "type": "SCALAR"
    },
    {
      "bufferView": 6,
      "componentType": 5126,
      "count": 19521,
      "max": [
        -1.5315606594085693,
        0.0845787301659584,
        -0.23082394897937775
      ],
      "min": [
        -1.8858028650283813,
        -0.1582413911819458,
        -0.5899710059165955
      ],
      "name": "草1_1/POSITION",
      "type": "VEC3"
    },
    {
      "bufferView": 6,
      "byteOffset": 12,
      "componentType": 5126,
      "count": 19521,
      "name": "草1_1/NORMAL",
      "type": "VEC3"
    },
    {
      "bufferView": 6,
      "byteOffset": 24,
      "componentType": 5126,
      "count": 19521,
      "name": "草1_1/TEXCOORD_0",
      "type": "VEC2"
    },
    {
      "bufferView": 7,
      "componentType": 5125,
      "count": 90729,
      "name": "草1_1/INDICES",
      "type": "SCALAR"
    },
    {
      "bufferView": 8,
      "componentType": 5126,
      "count": 21069,
      "max": [
        -2.095912456512451,
        0.23772895336151123,
        0.5875332355499268
      ],
      "min": [
        -2.44734787940979,
        -0.12113683670759201,
        0.22013431787490845
      ],
      "name": "草2_1/POSITION",
      "type": "VEC3"
    },
    {
      "bufferView": 8,
      "byteOffset": 12,
      "componentType": 5126,
      "count": 21069,
      "name": "草2_1/NORMAL",
      "type": "VEC3"
    },
    {
      "bufferView": 8,
      "byteOffset": 24,
      "componentType": 5126,
      "count": 21069,
      "name": "草2_1/TEXCOORD_0",
      "type": "VEC2"
    },
    {
      "bufferView": 9,
      "componentType": 5125,
      "count": 90729,
      "name": "草2_1/INDICES",
      "type": "SCALAR"
    },
    {
      "bufferView": 10,
      "componentType": 5126,
      "count": 246,
      "max": [
        -1.5088326930999756,
        0.27401769161224365,
        0.3240710496902466
      ],
      "min": [
        -2.3038277626037598,
        -0.1410074084997177,
        -0.31544816493988037
      ],
      "name": "SM_Rock_08_LOD0_2/POSITION",
      "type": "VEC3"
    },
    {
      "bufferView": 10,
      "byteOffset": 12,
      "componentType": 5126,
      "count": 246,
      "name": "SM_Rock_08_LOD0_2/NORMAL",
      "type": "VEC3"
    },
    {
      "bufferView": 10,
      "byteOffset": 24,
      "componentType": 5126,
      "count": 246,
      "name": "SM_Rock_08_LOD0_2/TEXCOORD_0",
      "type": "VEC2"
    },
    {
      "bufferView": 11,
      "componentType": 5125,
      "count": 498,
      "name": "SM_Rock_08_LOD0_2/INDICES",
      "type": "SCALAR"
    },
    {
      "bufferView": 12,
      "componentType": 5126,
      "count": 21093,
      "max": [
        0.8652405738830566,
        0.11335743963718414,
        0.03961577266454697
      ],
      "min": [
        0.6080173850059509,
        -0.1212504655122757,
        -0.24166865646839142
      ],
      "name": "草/POSITION",
      "type": "VEC3"
    },
    {
      "bufferView": 12,
      "byteOffset": 12,
      "componentType": 5126,
      "count": 21093,
      "name": "草/NORMAL",
      "type": "VEC3"
    },
    {
      "bufferView": 12,
      "byteOffset": 24,
      "componentType": 5126,
      "count": 21093,
      "name": "草/TEXCOORD_0",
      "type": "VEC2"
    },
    {
      "bufferView": 13,
      "componentType": 5125,
      "count": 90729,
      "name": "草/INDICES",
      "type": "SCALAR"
    },
    {
      "bufferView": 14,
      "componentType": 5126,
      "count": 184,
      "max": [
        0.8441120982170105,
        0.24704597890377045,
        0.34419265389442444
      ],
      "min": [
        0.3286590576171875,
        -0.11403574049472809,
        -0.16448718309402466
      ],
      "name": "SM_Rock_08_LOD0_3/POSITION",
      "type": "VEC3"
    },
    {
      "bufferView": 14,
      "byteOffset": 12,
      "componentType": 5126,
      "count": 184,
      "name": "SM_Rock_08_LOD0_3/NORMAL",
      "type": "VEC3"
    },
    {
      "bufferView": 14,
      "byteOffset": 24,
      "componentType": 5126,
      "count": 184,
      "name": "SM_Rock_08_LOD0_3/TEXCOORD_0",
      "type": "VEC2"
    },
    {
      "bufferView": 15,
      "componentType": 5125,
      "count": 300,
      "name": "SM_Rock_08_LOD0_3/INDICES",
      "type": "SCALAR"
    },
    {
      "bufferView": 16,
      "componentType": 5126,
      "count": 120,
      "max": [
        1.8976941108703613,
        0.20498494803905487,
        -0.3909073770046234
      ],
      "min": [
        1.4432339668273926,
        -0.07197479158639908,
        -0.7255365252494812
      ],
      "name": "SM_Rock_08_LOD0_5/POSITION",
      "type": "VEC3"
    },
    {
      "bufferView": 16,
      "byteOffset": 12,
      "componentType": 5126,
      "count": 120,
      "name": "SM_Rock_08_LOD0_5/NORMAL",
      "type": "VEC3"
    },
    {
      "bufferView": 16,
      "byteOffset": 24,
      "componentType": 5126,
      "count": 120,
      "name": "SM_Rock_08_LOD0_5/TEXCOORD_0",
      "type": "VEC2"
    },
    {
      "bufferView": 17,
      "componentType": 5125,
      "count": 204,
      "name": "SM_Rock_08_LOD0_5/INDICES",
      "type": "SCALAR"
    },
    {
      "bufferView": 18,
      "componentType": 5126,
      "count": 21093,
      "max": [
        1.7981258630752563,
        0.16505219042301178,
        -0.1771138310432434
      ],
      "min": [
        1.5409027338027954,
        -0.06955571472644806,
        -0.4583982825279236
      ],
      "name": "草_1/POSITION",
      "type": "VEC3"
    },
    {
      "bufferView": 18,
      "byteOffset": 12,
      "componentType": 5126,
      "count": 21093,
      "name": "草_1/NORMAL",
      "type": "VEC3"
    },
    {
      "bufferView": 18,
      "byteOffset": 24,
      "componentType": 5126,
      "count": 21093,
      "name": "草_1/TEXCOORD_0",
      "type": "VEC2"
    },
    {
      "bufferView": 19,
      "componentType": 5125,
      "count": 90729,
      "name": "草_1/INDICES",
      "type": "SCALAR"
    },
    {
      "bufferView": 20,
      "componentType": 5126,
      "count": 82,
      "max": [
        1.2436197996139526,
        0.2011902928352356,
        0.8623533844947815
      ],
      "min": [
        0.8322445750236511,
        -0.06818004697561264,
        0.4682838022708893
      ],
      "name": "石头5/POSITION",
      "type": "VEC3"
    },
    {
      "bufferView": 20,
      "byteOffset": 12,
      "componentType": 5126,
      "count": 82,
      "name": "石头5/NORMAL",
      "type": "VEC3"
    },
    {
      "bufferView": 20,
      "byteOffset": 24,
      "componentType": 5126,
      "count": 82,
      "name": "石头5/TEXCOORD_0",
      "type": "VEC2"
    },
    {
      "bufferView": 21,
      "componentType": 5125,
      "count": 162,
      "name": "石头5/INDICES",
      "type": "SCALAR"
    },
    {
      "bufferView": 22,
      "componentType": 5126,
      "count": 136,
      "max": [
        0.3250109553337097,
        0.3133706748485565,
        -0.7857712507247925
      ],
      "min": [
        -0.13507317006587982,
        -0.18036049604415894,
        -1.2050338983535767
      ],
      "name": "石头6/POSITION",
      "type": "VEC3"
    },
    {
      "bufferView": 22,
      "byteOffset": 12,
      "componentType": 5126,
      "count": 136,
      "name": "石头6/NORMAL",
      "type": "VEC3"
    },
    {
      "bufferView": 22,
      "byteOffset": 24,
      "componentType": 5126,
      "count": 136,
      "name": "石头6/TEXCOORD_0",
      "type": "VEC2"
    },
    {
      "bufferView": 23,
      "componentType": 5125,
      "count": 216,
      "name": "石头6/INDICES",
      "type": "SCALAR"
    },
    {
      "bufferView": 24,
      "componentType": 5126,
      "count": 128,
      "max": [
        0.8366314768791199,
        0.19592300057411194,
        -0.5674917697906494
      ],
      "min": [
        0.4119694232940674,
        -0.06291282922029495,
        -1.5690820217132568
      ],
      "name": "石头7/POSITION",
      "type": "VEC3"
    },
    {
      "bufferView": 24,
      "byteOffset": 12,
      "componentType": 5126,
      "count": 128,
      "name": "石头7/NORMAL",
      "type": "VEC3"
    },
    {
      "bufferView": 24,
      "byteOffset": 24,
      "componentType": 5126,
      "count": 128,
      "name": "石头7/TEXCOORD_0",
      "type": "VEC2"
    },
    {
      "bufferView": 25,
      "componentType": 5125,
      "count": 204,
      "name": "石头7/INDICES",
      "type": "SCALAR"
    },
    {
      "bufferView": 26,
      "componentType": 5126,
      "count": 200,
      "max": [
        -0.6926547288894653,
        0.26981601119041443,
        0.5574928522109985
      ],
      "min": [
        -1.339849829673767,
        -0.13680578768253326,
        -0.9447286128997803
      ],
      "name": "石头8/POSITION",
      "type": "VEC3"
    },
    {
      "bufferView": 26,
      "byteOffset": 12,
      "componentType": 5126,
      "count": 200,
      "name": "石头8/NORMAL",
      "type": "VEC3"
    },
    {
      "bufferView": 26,
      "byteOffset": 24,
      "componentType": 5126,
      "count": 200,
      "name": "石头8/TEXCOORD_0",
      "type": "VEC2"
    },
    {
      "bufferView": 27,
      "componentType": 5125,
      "count": 282,
      "name": "石头8/INDICES",
      "type": "SCALAR"
    },
    {
      "bufferView": 28,
      "componentType": 5126,
      "count": 140,
      "max": [
        0.6081859469413757,
        0.21051086485385895,
        1.5690821409225464
      ],
      "min": [
        0.2152842879295349,
        -0.0775006115436554,
        1.1144737005233765
      ],
      "name": "石头9/POSITION",
      "type": "VEC3"
    },
    {
      "bufferView": 28,
      "byteOffset": 12,
      "componentType": 5126,
      "count": 140,
      "name": "石头9/NORMAL",
      "type": "VEC3"
    },
    {
      "bufferView": 28,
      "byteOffset": 24,
      "componentType": 5126,
      "count": 140,
      "name": "石头9/TEXCOORD_0",
      "type": "VEC2"
    },
    {
      "bufferView": 29,
      "componentType": 5125,
      "count": 234,
      "name": "石头9/INDICES",
      "type": "SCALAR"
    }
  ],
  "asset": {
    "copyright": "Copyright (c) 2018-2020 Chukong Technologies Inc.",
    "generator": "FBX-glTF-conv",
    "version": "2.0"
  },
  "bufferViews": [
    {
      "buffer": 0,
      "byteLength": 674208,
      "byteStride": 32,
      "name": "草1",
      "target": 34962
    },
    {
      "buffer": 0,
      "byteLength": 362916,
      "byteOffset": 674208
    },
    {
      "buffer": 0,
      "byteLength": 674304,
      "byteOffset": 1037124,
      "byteStride": 32,
      "name": "草2",
      "target": 34962
    },
    {
      "buffer": 0,
      "byteLength": 362916,
      "byteOffset": 1711428
    },
    {
      "buffer": 0,
      "byteLength": 12800,
      "byteOffset": 2074344,
      "byteStride": 32,
      "name": "SM_Rock_08_LOD0_1",
      "target": 34962
    },
    {
      "buffer": 0,
      "byteLength": 3672,
      "byteOffset": 2087144
    },
    {
      "buffer": 0,
      "byteLength": 624672,
      "byteOffset": 2090816,
      "byteStride": 32,
      "name": "草1_1",
      "target": 34962
    },
    {
      "buffer": 0,
      "byteLength": 362916,
      "byteOffset": 2715488
    },
    {
      "buffer": 0,
      "byteLength": 674208,
      "byteOffset": 3078404,
      "byteStride": 32,
      "name": "草2_1",
      "target": 34962
    },
    {
      "buffer": 0,
      "byteLength": 362916,
      "byteOffset": 3752612
    },
    {
      "buffer": 0,
      "byteLength": 7872,
      "byteOffset": 4115528,
      "byteStride": 32,
      "name": "SM_Rock_08_LOD0_2",
      "target": 34962
    },
    {
      "buffer": 0,
      "byteLength": 1992,
      "byteOffset": 4123400
    },
    {
      "buffer": 0,
      "byteLength": 674976,
      "byteOffset": 4125392,
      "byteStride": 32,
      "name": "草",
      "target": 34962
    },
    {
      "buffer": 0,
      "byteLength": 362916,
      "byteOffset": 4800368
    },
    {
      "buffer": 0,
      "byteLength": 5888,
      "byteOffset": 5163284,
      "byteStride": 32,
      "name": "SM_Rock_08_LOD0_3",
      "target": 34962
    },
    {
      "buffer": 0,
      "byteLength": 1200,
      "byteOffset": 5169172
    },
    {
      "buffer": 0,
      "byteLength": 3840,
      "byteOffset": 5170372,
      "byteStride": 32,
      "name": "SM_Rock_08_LOD0_5",
      "target": 34962
    },
    {
      "buffer": 0,
      "byteLength": 816,
      "byteOffset": 5174212
    },
    {
      "buffer": 0,
      "byteLength": 674976,
      "byteOffset": 5175028,
      "byteStride": 32,
      "name": "草_1",
      "target": 34962
    },
    {
      "buffer": 0,
      "byteLength": 362916,
      "byteOffset": 5850004
    },
    {
      "buffer": 0,
      "byteLength": 2624,
      "byteOffset": 6212920,
      "byteStride": 32,
      "name": "石头5",
      "target": 34962
    },
    {
      "buffer": 0,
      "byteLength": 648,
      "byteOffset": 6215544
    },
    {
      "buffer": 0,
      "byteLength": 4352,
      "byteOffset": 6216192,
      "byteStride": 32,
      "name": "石头6",
      "target": 34962
    },
    {
      "buffer": 0,
      "byteLength": 864,
      "byteOffset": 6220544
    },
    {
      "buffer": 0,
      "byteLength": 4096,
      "byteOffset": 6221408,
      "byteStride": 32,
      "name": "石头7",
      "target": 34962
    },
    {
      "buffer": 0,
      "byteLength": 816,
      "byteOffset": 6225504
    },
    {
      "buffer": 0,
      "byteLength": 6400,
      "byteOffset": 6226320,
      "byteStride": 32,
      "name": "石头8",
      "target": 34962
    },
    {
      "buffer": 0,
      "byteLength": 1128,
      "byteOffset": 6232720
    },
    {
      "buffer": 0,
      "byteLength": 4480,
      "byteOffset": 6233848,
      "byteStride": 32,
      "name": "石头9",
      "target": 34962
    },
    {
      "buffer": 0,
      "byteLength": 936,
      "byteOffset": 6238328
    }
  ],
  "buffers": [
    {
      "byteLength": 6239264,
      "uri": "out.bin"
    }
  ],
  "meshes": [
    {
      "name": "草1",
      "primitives": [
        {
          "attributes": {
            "NORMAL": 1,
            "POSITION": 0,
            "TEXCOORD_0": 2
          },
          "indices": 3
        }
      ]
    },
    {
      "name": "草2",
      "primitives": [
        {
          "attributes": {
            "NORMAL": 5,
            "POSITION": 4,
            "TEXCOORD_0": 6
          },
          "indices": 7
        }
      ]
    },
    {
      "name": "SM_Rock_08_LOD0_1",
      "primitives": [
        {
          "attributes": {
            "NORMAL": 9,
            "POSITION": 8,
            "TEXCOORD_0": 10
          },
          "indices": 11
        }
      ]
    },
    {
      "name": "草1_1",
      "primitives": [
        {
          "attributes": {
            "NORMAL": 13,
            "POSITION": 12,
            "TEXCOORD_0": 14
          },
          "indices": 15
        }
      ]
    },
    {
      "name": "草2_1",
      "primitives": [
        {
          "attributes": {
            "NORMAL": 17,
            "POSITION": 16,
            "TEXCOORD_0": 18
          },
          "indices": 19
        }
      ]
    },
    {
      "name": "SM_Rock_08_LOD0_2",
      "primitives": [
        {
          "attributes": {
            "NORMAL": 21,
            "POSITION": 20,
            "TEXCOORD_0": 22
          },
          "indices": 23
        }
      ]
    },
    {
      "name": "草",
      "primitives": [
        {
          "attributes": {
            "NORMAL": 25,
            "POSITION": 24,
            "TEXCOORD_0": 26
          },
          "indices": 27
        }
      ]
    },
    {
      "name": "SM_Rock_08_LOD0_3",
      "primitives": [
        {
          "attributes": {
            "NORMAL": 29,
            "POSITION": 28,
            "TEXCOORD_0": 30
          },
          "indices": 31
        }
      ]
    },
    {
      "name": "SM_Rock_08_LOD0_5",
      "primitives": [
        {
          "attributes": {
            "NORMAL": 33,
            "POSITION": 32,
            "TEXCOORD_0": 34
          },
          "indices": 35
        }
      ]
    },
    {
      "name": "草_1",
      "primitives": [
        {
          "attributes": {
            "NORMAL": 37,
            "POSITION": 36,
            "TEXCOORD_0": 38
          },
          "indices": 39
        }
      ]
    },
    {
      "name": "石头5",
      "primitives": [
        {
          "attributes": {
            "NORMAL": 41,
            "POSITION": 40,
            "TEXCOORD_0": 42
          },
          "indices": 43
        }
      ]
    },
    {
      "name": "石头6",
      "primitives": [
        {
          "attributes": {
            "NORMAL": 45,
            "POSITION": 44,
            "TEXCOORD_0": 46
          },
          "indices": 47
        }
      ]
    },
    {
      "name": "石头7",
      "primitives": [
        {
          "attributes": {
            "NORMAL": 49,
            "POSITION": 48,
            "TEXCOORD_0": 50
          },
          "indices": 51
        }
      ]
    },
    {
      "name": "石头8",
      "primitives": [
        {
          "attributes": {
            "NORMAL": 53,
            "POSITION": 52,
            "TEXCOORD_0": 54
          },
          "indices": 55
        }
      ]
    },
    {
      "name": "石头9",
      "primitives": [
        {
          "attributes": {
            "NORMAL": 57,
            "POSITION": 56,
            "TEXCOORD_0": 58
          },
          "indices": 59
        }
      ]
    }
  ],
  "nodes": [
    {
      "name": "Cinema_4D_编辑器",
      "rotation": [
        -0.15606123208999634,
        0.9106032252311707,
        -0.06464267522096634,
        0.3771842122077942
      ],
      "translation": [
        3.28717041015625,
        1.793778419494629,
        3.561997413635254
      ]
    },
    {
      "children": [
        2,
        3,
        4,
        5,
        6,
        7,
        8,
        9,
        10,
        11,
        12,
        13,
        14,
        15,
        16
      ],
      "name": "石头_obj"
    },
    {
      "mesh": 0,
      "name": "草1"
    },
    {
      "mesh": 1,
      "name": "草2"
    },
    {
      "mesh": 2,
      "name": "SM_Rock_08_LOD0_1"
    },
    {
      "mesh": 3,
      "name": "草1_1"
    },
    {
      "mesh": 4,
      "name": "草2_1"
    },
    {
      "mesh": 5,
      "name": "SM_Rock_08_LOD0_2"
    },
    {
      "mesh": 6,
      "name": "草"
    },
    {
      "mesh": 7,
      "name": "SM_Rock_08_LOD0_3"
    },
    {
      "mesh": 8,
      "name": "SM_Rock_08_LOD0_5"
    },
    {
      "mesh": 9,
      "name": "草_1"
    },
    {
      "mesh": 10,
      "name": "石头5"
    },
    {
      "mesh": 11,
      "name": "石头6"
    },
    {
      "mesh": 12,
      "name": "石头7"
    },
    {
      "mesh": 13,
      "name": "石头8"
    },
    {
      "mesh": 14,
      "name": "石头9"
    }
  ],
  "scenes": [
    {
      "nodes": [
        0,
        1
      ]
    }
  ]
}