{
  "accessors": [
    {
      "bufferView": 0,
      "componentType": 5126,
      "count": 2113,
      "max": [
        0.07496161013841629,
        0.06955263018608093,
        0.06427442282438278
      ],
      "min": [
        -0.14834673702716827,
        -0.3066825270652771,
        -0.07902940362691879
      ],
      "name": "扫描/POSITION",
      "type": "VEC3"
    },
    {
      "bufferView": 0,
      "byteOffset": 12,
      "componentType": 5126,
      "count": 2113,
      "name": "扫描/NORMAL",
      "type": "VEC3"
    },
    {
      "bufferView": 0,
      "byteOffset": 24,
      "componentType": 5126,
      "count": 2113,
      "name": "扫描/TEXCOORD_0",
      "type": "VEC2"
    },
    {
      "bufferView": 1,
      "componentType": 5125,
      "count": 6270,
      "name": "扫描/INDICES",
      "type": "SCALAR"
    },
    {
      "bufferView": 2,
      "componentType": 5126,
      "count": 293,
      "max": [
        0.17254120111465454,
        0.04398519918322563,
        0.043964091688394547
      ],
      "min": [
        -0.8123108148574829,
        -0.04397821053862572,
        -0.04397233948111534
      ],
      "name": "Default/POSITION",
      "type": "VEC3"
    },
    {
      "bufferView": 2,
      "byteOffset": 12,
      "componentType": 5126,
      "count": 293,
      "name": "Default/NORMAL",
      "type": "VEC3"
    },
    {
      "bufferView": 2,
      "byteOffset": 24,
      "componentType": 5126,
      "count": 293,
      "name": "Default/TEXCOORD_0",
      "type": "VEC2"
    },
    {
      "bufferView": 3,
      "componentType": 5125,
      "count": 627,
      "name": "Default/INDICES",
      "type": "SCALAR"
    }
  ],
  "asset": {
    "copyright": "Copyright (c) 2018-2020 Chukong Technologies Inc.",
    "generator": "FBX-glTF-conv",
    "version": "2.0"
  },
  "bufferViews": [
    {
      "buffer": 0,
      "byteLength": 67616,
      "byteStride": 32,
      "name": "扫描",
      "target": 34962
    },
    {
      "buffer": 0,
      "byteLength": 25080,
      "byteOffset": 67616
    },
    {
      "buffer": 0,
      "byteLength": 9376,
      "byteOffset": 92696,
      "byteStride": 32,
      "name": "Default",
      "target": 34962
    },
    {
      "buffer": 0,
      "byteLength": 2508,
      "byteOffset": 102072
    }
  ],
  "buffers": [
    {
      "byteLength": 104580,
      "uri": "out.bin"
    }
  ],
  "images": [
    {
      "extras": {
        "FBX-glTF-conv": {
          "fileName": "C:\\Users\\86152\\Desktop\\EulerLand\\temp\\asset-db\\assets\\fbx.FBX-glTF-conv\\d0907cf1-d59f-4027-9216-f583c99c20c8\\output\\.fbm\\128A36D0\\木头.fbm/d32186692a26e4987520fc57618e970766cdc3f3173c8-eREXW8.jpg",
          "relativeFileName": "..\\..\\..\\..\\..\\..\\temp\\asset-db\\assets\\fbx.FBX-glTF-conv\\d0907cf1-d59f-4027-9216-f583c99c20c8\\output\\.fbm\\128A36D0\\木头.fbm\\d32186692a26e4987520fc57618e970766cdc3f3173c8-eREXW8.jpg"
        }
      },
      "name": "d32186692a26e4987520fc57618e970766cdc3f3173c8-eREXW8.jpg",
      "uri": "d32186692a26e4987520fc57618e970766cdc3f3173c8-eREXW8.jpg"
    },
    {
      "extras": {
        "FBX-glTF-conv": {
          "fileName": "C:\\Users\\86152\\Desktop\\EulerLand\\temp\\asset-db\\assets\\fbx.FBX-glTF-conv\\d0907cf1-d59f-4027-9216-f583c99c20c8\\output\\.fbm\\128A36D0\\木头.fbm/木头.png",
          "relativeFileName": "..\\..\\..\\..\\..\\..\\temp\\asset-db\\assets\\fbx.FBX-glTF-conv\\d0907cf1-d59f-4027-9216-f583c99c20c8\\output\\.fbm\\128A36D0\\木头.fbm\\木头.png"
        }
      },
      "name": "木头.png",
      "uri": "木头.png"
    }
  ],
  "materials": [
    {
      "name": "Material__0",
      "pbrMetallicRoughness": {
        "baseColorTexture": {
          "index": 0
        },
        "metallicFactor": 0.4000000059604645,
        "roughnessFactor": 0.24253562092781067
      }
    },
    {
      "name": "材质.2",
      "pbrMetallicRoughness": {
        "baseColorTexture": {
          "index": 1
        },
        "metallicFactor": 0.4000000059604645,
        "roughnessFactor": 0.24253562092781067
      }
    }
  ],
  "meshes": [
    {
      "name": "扫描",
      "primitives": [
        {
          "attributes": {
            "NORMAL": 1,
            "POSITION": 0,
            "TEXCOORD_0": 2
          },
          "indices": 3,
          "material": 0
        }
      ]
    },
    {
      "name": "Default",
      "primitives": [
        {
          "attributes": {
            "NORMAL": 5,
            "POSITION": 4,
            "TEXCOORD_0": 6
          },
          "indices": 7,
          "material": 1
        }
      ]
    }
  ],
  "nodes": [
    {
      "name": "Cinema_4D_编辑器",
      "rotation": [
        -0.15606123208999634,
        0.9106032252311707,
        -0.06464267522096634,
        0.3771842122077942
      ],
      "translation": [
        0.44393789768218994,
        0.2628963589668274,
        0.7564451694488525
      ]
    },
    {
      "children": [
        2,
        3
      ],
      "name": "木头_obj"
    },
    {
      "mesh": 0,
      "name": "扫描"
    },
    {
      "mesh": 1,
      "name": "Default"
    }
  ],
  "samplers": [
    {}
  ],
  "scenes": [
    {
      "nodes": [
        0,
        1
      ]
    }
  ],
  "textures": [
    {
      "name": "d32186692a26e4987520fc57618e970766cdc3f3173c8-eREXW8.jpg",
      "sampler": 0,
      "source": 0
    },
    {
      "name": "木头.png",
      "sampler": 0,
      "source": 1
    }
  ]
}