{
  "accessors": [
    {
      "bufferView": 0,
      "componentType": 5126,
      "count": 1728,
      "max": [
        1.2672234773635864,
        1.406416416168213,
        -0.8492820262908936
      ],
      "min": [
        -0.5408923029899597,
        0.22083760797977448,
        -2.1438426971435547
      ],
      "name": "云1_1/POSITION",
      "type": "VEC3"
    },
    {
      "bufferView": 0,
      "byteOffset": 12,
      "componentType": 5126,
      "count": 1728,
      "name": "云1_1/NORMAL",
      "type": "VEC3"
    },
    {
      "bufferView": 0,
      "byteOffset": 24,
      "componentType": 5126,
      "count": 1728,
      "name": "云1_1/TEXCOORD_0",
      "type": "VEC2"
    },
    {
      "bufferView": 1,
      "componentType": 5125,
      "count": 9216,
      "name": "云1_1/INDICES",
      "type": "SCALAR"
    },
    {
      "bufferView": 2,
      "componentType": 5126,
      "count": 1728,
      "max": [
        -0.18908189237117767,
        1.582046627998352,
        -0.14280551671981812
      ],
      "min": [
        -2.543386936187744,
        0.08783262968063354,
        -1.4679138660430908
      ],
      "name": "云1_1_1/POSITION",
      "type": "VEC3"
    },
    {
      "bufferView": 2,
      "byteOffset": 12,
      "componentType": 5126,
      "count": 1728,
      "name": "云1_1_1/NORMAL",
      "type": "VEC3"
    },
    {
      "bufferView": 2,
      "byteOffset": 24,
      "componentType": 5126,
      "count": 1728,
      "name": "云1_1_1/TEXCOORD_0",
      "type": "VEC2"
    },
    {
      "bufferView": 3,
      "componentType": 5125,
      "count": 9216,
      "name": "云1_1_1/INDICES",
      "type": "SCALAR"
    },
    {
      "bufferView": 4,
      "componentType": 5126,
      "count": 4348,
      "max": [
        1.0,
        1.7209528684616089,
        0.40094292163848877
      ],
      "min": [
        -1.0,
        0.0,
        -0.40094292163848877
      ],
      "name": "机身/POSITION",
      "type": "VEC3"
    },
    {
      "bufferView": 4,
      "byteOffset": 12,
      "componentType": 5126,
      "count": 4348,
      "name": "机身/NORMAL",
      "type": "VEC3"
    },
    {
      "bufferView": 4,
      "byteOffset": 24,
      "componentType": 5126,
      "count": 4348,
      "name": "机身/TEXCOORD_0",
      "type": "VEC2"
    },
    {
      "bufferView": 5,
      "componentType": 5125,
      "count": 6690,
      "name": "机身/INDICES",
      "type": "SCALAR"
    },
    {
      "bufferView": 6,
      "componentType": 5126,
      "count": 10,
      "max": [
        0.842071533203125,
        1.5630242824554443,
        0.3513205051422119
      ],
      "min": [
        -0.842071533203125,
        0.4705677330493927,
        0.3513205051422119
      ],
      "name": "屏幕/POSITION",
      "type": "VEC3"
    },
    {
      "bufferView": 6,
      "byteOffset": 12,
      "componentType": 5126,
      "count": 10,
      "name": "屏幕/NORMAL",
      "type": "VEC3"
    },
    {
      "bufferView": 6,
      "byteOffset": 24,
      "componentType": 5126,
      "count": 10,
      "name": "屏幕/TEXCOORD_0",
      "type": "VEC2"
    },
    {
      "bufferView": 7,
      "componentType": 5125,
      "count": 18,
      "name": "屏幕/INDICES",
      "type": "SCALAR"
    }
  ],
  "asset": {
    "copyright": "Copyright (c) 2018-2020 Chukong Technologies Inc.",
    "generator": "FBX-glTF-conv",
    "version": "2.0"
  },
  "bufferViews": [
    {
      "buffer": 0,
      "byteLength": 55296,
      "byteStride": 32,
      "name": "云1_1",
      "target": 34962
    },
    {
      "buffer": 0,
      "byteLength": 36864,
      "byteOffset": 55296
    },
    {
      "buffer": 0,
      "byteLength": 55296,
      "byteOffset": 92160,
      "byteStride": 32,
      "name": "云1_1_1",
      "target": 34962
    },
    {
      "buffer": 0,
      "byteLength": 36864,
      "byteOffset": 147456
    },
    {
      "buffer": 0,
      "byteLength": 139136,
      "byteOffset": 184320,
      "byteStride": 32,
      "name": "机身",
      "target": 34962
    },
    {
      "buffer": 0,
      "byteLength": 26760,
      "byteOffset": 323456
    },
    {
      "buffer": 0,
      "byteLength": 320,
      "byteOffset": 350216,
      "byteStride": 32,
      "name": "屏幕",
      "target": 34962
    },
    {
      "buffer": 0,
      "byteLength": 72,
      "byteOffset": 350536
    }
  ],
  "buffers": [
    {
      "byteLength": 350608,
      "uri": "out.bin"
    }
  ],
  "materials": [
    {
      "name": "default",
      "pbrMetallicRoughness": {
        "metallicFactor": 0.4000000059604645,
        "roughnessFactor": 0.24253562092781067
      }
    },
    {
      "name": "材质.1_1",
      "pbrMetallicRoughness": {
        "baseColorFactor": [
          0.13429999351501465,
          0.1396549940109253,
          0.17000000178813934,
          1.0
        ],
        "metallicFactor": 0.4000000059604645,
        "roughnessFactor": 0.24253562092781067
      }
    },
    {
      "name": "材质.1",
      "pbrMetallicRoughness": {
        "baseColorFactor": [
          0.1764705926179886,
          0.3921568691730499,
          0.95686274766922,
          1.0
        ],
        "metallicFactor": 0.4000000059604645,
        "roughnessFactor": 0.24253562092781067
      }
    }
  ],
  "meshes": [
    {
      "name": "云1_1",
      "primitives": [
        {
          "attributes": {
            "NORMAL": 1,
            "POSITION": 0,
            "TEXCOORD_0": 2
          },
          "indices": 3,
          "material": 0
        }
      ]
    },
    {
      "name": "云1_1_1",
      "primitives": [
        {
          "attributes": {
            "NORMAL": 5,
            "POSITION": 4,
            "TEXCOORD_0": 6
          },
          "indices": 7,
          "material": 0
        }
      ]
    },
    {
      "name": "机身",
      "primitives": [
        {
          "attributes": {
            "NORMAL": 9,
            "POSITION": 8,
            "TEXCOORD_0": 10
          },
          "indices": 11,
          "material": 1
        }
      ]
    },
    {
      "name": "屏幕",
      "primitives": [
        {
          "attributes": {
            "NORMAL": 13,
            "POSITION": 12,
            "TEXCOORD_0": 14
          },
          "indices": 15,
          "material": 2
        }
      ]
    }
  ],
  "nodes": [
    {
      "name": "Cinema_4D_编辑器",
      "rotation": [
        -0.09122566133737564,
        0.6345797777175903,
        -0.10920475423336029,
        0.7596451044082642
      ],
      "translation": [
        -1.726244330406189,
        3.0774199962615967,
        6.54723596572876
      ]
    },
    {
      "children": [
        2,
        3,
        4,
        5
      ],
      "name": "电视_obj"
    },
    {
      "mesh": 0,
      "name": "云1_1"
    },
    {
      "mesh": 1,
      "name": "云1_1_1"
    },
    {
      "mesh": 2,
      "name": "机身"
    },
    {
      "mesh": 3,
      "name": "屏幕"
    }
  ],
  "scenes": [
    {
      "nodes": [
        0,
        1
      ]
    }
  ]
}