{
  "accessors": [
    {
      "bufferView": 0,
      "componentType": 5126,
      "count": 72,
      "max": [
        0.9277458786964417,
        0.29049980640411377,
        1.2911912202835083
      ],
      "min": [
        0.42499497532844543,
        0.004226000048220158,
        0.7904317378997803
      ],
      "name": "中山1/POSITION",
      "type": "VEC3"
    },
    {
      "bufferView": 0,
      "byteOffset": 12,
      "componentType": 5126,
      "count": 72,
      "name": "中山1/NORMAL",
      "type": "VEC3"
    },
    {
      "bufferView": 0,
      "byteOffset": 24,
      "componentType": 5126,
      "count": 72,
      "name": "中山1/TEXCOORD_0",
      "type": "VEC2"
    },
    {
      "bufferView": 1,
      "componentType": 5125,
      "count": 336,
      "name": "中山1/INDICES",
      "type": "SCALAR"
    },
    {
      "bufferView": 2,
      "componentType": 5126,
      "count": 274,
      "max": [
        1.4226995706558228,
        1.4637577533721924,
        0.7745260000228882
      ],
      "min": [
        0.5125035047531128,
        0.003905000165104866,
        -0.3372756242752075
      ],
      "name": "大山2/POSITION",
      "type": "VEC3"
    },
    {
      "bufferView": 2,
      "byteOffset": 12,
      "componentType": 5126,
      "count": 274,
      "name": "大山2/NORMAL",
      "type": "VEC3"
    },
    {
      "bufferView": 2,
      "byteOffset": 24,
      "componentType": 5126,
      "count": 274,
      "name": "大山2/TEXCOORD_0",
      "type": "VEC2"
    },
    {
      "bufferView": 3,
      "componentType": 5125,
      "count": 1314,
      "name": "大山2/INDICES",
      "type": "SCALAR"
    },
    {
      "bufferView": 4,
      "componentType": 5126,
      "count": 62,
      "max": [
        0.4324621856212616,
        0.7614759802818298,
        0.8833013772964478
      ],
      "min": [
        -0.11690278351306915,
        0.003889000043272972,
        0.20348024368286133
      ],
      "name": "中山2/POSITION",
      "type": "VEC3"
    },
    {
      "bufferView": 4,
      "byteOffset": 12,
      "componentType": 5126,
      "count": 62,
      "name": "中山2/NORMAL",
      "type": "VEC3"
    },
    {
      "bufferView": 4,
      "byteOffset": 24,
      "componentType": 5126,
      "count": 62,
      "name": "中山2/TEXCOORD_0",
      "type": "VEC2"
    },
    {
      "bufferView": 5,
      "componentType": 5125,
      "count": 288,
      "name": "中山2/INDICES",
      "type": "SCALAR"
    },
    {
      "bufferView": 6,
      "componentType": 5126,
      "count": 43,
      "max": [
        -0.3400229215621948,
        0.20346450805664063,
        0.6883506774902344
      ],
      "min": [
        -0.4737553894519806,
        0.003978000022470951,
        0.5206922292709351
      ],
      "name": "小山/POSITION",
      "type": "VEC3"
    },
    {
      "bufferView": 6,
      "byteOffset": 12,
      "componentType": 5126,
      "count": 43,
      "name": "小山/NORMAL",
      "type": "VEC3"
    },
    {
      "bufferView": 6,
      "byteOffset": 24,
      "componentType": 5126,
      "count": 43,
      "name": "小山/TEXCOORD_0",
      "type": "VEC2"
    },
    {
      "bufferView": 7,
      "componentType": 5125,
      "count": 192,
      "name": "小山/INDICES",
      "type": "SCALAR"
    },
    {
      "bufferView": 8,
      "componentType": 5126,
      "count": 266,
      "max": [
        0.34057578444480896,
        1.4968777894973755,
        0.3626064956188202
      ],
      "min": [
        -0.6481004357337952,
        0.0030004815198481083,
        -0.803143322467804
      ],
      "name": "大山1/POSITION",
      "type": "VEC3"
    },
    {
      "bufferView": 8,
      "byteOffset": 12,
      "componentType": 5126,
      "count": 266,
      "name": "大山1/NORMAL",
      "type": "VEC3"
    },
    {
      "bufferView": 8,
      "byteOffset": 24,
      "componentType": 5126,
      "count": 266,
      "name": "大山1/TEXCOORD_0",
      "type": "VEC2"
    },
    {
      "bufferView": 9,
      "componentType": 5125,
      "count": 1314,
      "name": "大山1/INDICES",
      "type": "SCALAR"
    }
  ],
  "asset": {
    "copyright": "Copyright (c) 2018-2020 Chukong Technologies Inc.",
    "generator": "FBX-glTF-conv",
    "version": "2.0"
  },
  "bufferViews": [
    {
      "buffer": 0,
      "byteLength": 2304,
      "byteStride": 32,
      "name": "中山1",
      "target": 34962
    },
    {
      "buffer": 0,
      "byteLength": 1344,
      "byteOffset": 2304
    },
    {
      "buffer": 0,
      "byteLength": 8768,
      "byteOffset": 3648,
      "byteStride": 32,
      "name": "大山2",
      "target": 34962
    },
    {
      "buffer": 0,
      "byteLength": 5256,
      "byteOffset": 12416
    },
    {
      "buffer": 0,
      "byteLength": 1984,
      "byteOffset": 17672,
      "byteStride": 32,
      "name": "中山2",
      "target": 34962
    },
    {
      "buffer": 0,
      "byteLength": 1152,
      "byteOffset": 19656
    },
    {
      "buffer": 0,
      "byteLength": 1376,
      "byteOffset": 20808,
      "byteStride": 32,
      "name": "小山",
      "target": 34962
    },
    {
      "buffer": 0,
      "byteLength": 768,
      "byteOffset": 22184
    },
    {
      "buffer": 0,
      "byteLength": 8512,
      "byteOffset": 22952,
      "byteStride": 32,
      "name": "大山1",
      "target": 34962
    },
    {
      "buffer": 0,
      "byteLength": 5256,
      "byteOffset": 31464
    }
  ],
  "buffers": [
    {
      "byteLength": 36720,
      "uri": "out.bin"
    }
  ],
  "images": [
    {
      "extras": {
        "FBX-glTF-conv": {
          "fileName": "C:\\Users\\86152\\Desktop\\EulerLand\\temp\\asset-db\\assets\\fbx.FBX-glTF-conv\\d9747491-b502-490b-8416-631e5042c468\\output\\.fbm\\6C1134B0\\山.fbm/场景三-山02.png",
          "relativeFileName": "..\\..\\..\\..\\..\\..\\temp\\asset-db\\assets\\fbx.FBX-glTF-conv\\d9747491-b502-490b-8416-631e5042c468\\output\\.fbm\\6C1134B0\\山.fbm\\场景三-山02.png"
        }
      },
      "name": "场景三-山02.png",
      "uri": "场景三-山02.png"
    },
    {
      "extras": {
        "FBX-glTF-conv": {
          "fileName": "C:\\Users\\86152\\Desktop\\EulerLand\\temp\\asset-db\\assets\\fbx.FBX-glTF-conv\\d9747491-b502-490b-8416-631e5042c468\\output\\.fbm\\6C1134B0\\山.fbm/场景三-山01.png",
          "relativeFileName": "..\\..\\..\\..\\..\\..\\temp\\asset-db\\assets\\fbx.FBX-glTF-conv\\d9747491-b502-490b-8416-631e5042c468\\output\\.fbm\\6C1134B0\\山.fbm\\场景三-山01.png"
        }
      },
      "name": "场景三-山01.png",
      "uri": "场景三-山01.png"
    }
  ],
  "materials": [
    {
      "name": "材质",
      "pbrMetallicRoughness": {
        "baseColorTexture": {
          "index": 0
        },
        "metallicFactor": 0.4000000059604645,
        "roughnessFactor": 0.24253562092781067
      }
    },
    {
      "name": "材质_1",
      "pbrMetallicRoughness": {
        "baseColorTexture": {
          "index": 1
        },
        "metallicFactor": 0.4000000059604645,
        "roughnessFactor": 0.24253562092781067
      }
    }
  ],
  "meshes": [
    {
      "name": "中山1",
      "primitives": [
        {
          "attributes": {
            "NORMAL": 1,
            "POSITION": 0,
            "TEXCOORD_0": 2
          },
          "indices": 3,
          "material": 0
        }
      ]
    },
    {
      "name": "大山2",
      "primitives": [
        {
          "attributes": {
            "NORMAL": 5,
            "POSITION": 4,
            "TEXCOORD_0": 6
          },
          "indices": 7,
          "material": 0
        }
      ]
    },
    {
      "name": "中山2",
      "primitives": [
        {
          "attributes": {
            "NORMAL": 9,
            "POSITION": 8,
            "TEXCOORD_0": 10
          },
          "indices": 11,
          "material": 1
        }
      ]
    },
    {
      "name": "小山",
      "primitives": [
        {
          "attributes": {
            "NORMAL": 13,
            "POSITION": 12,
            "TEXCOORD_0": 14
          },
          "indices": 15,
          "material": 1
        }
      ]
    },
    {
      "name": "大山1",
      "primitives": [
        {
          "attributes": {
            "NORMAL": 17,
            "POSITION": 16,
            "TEXCOORD_0": 18
          },
          "indices": 19,
          "material": 1
        }
      ]
    }
  ],
  "nodes": [
    {
      "name": "Cinema_4D_编辑器",
      "rotation": [
        -0.16329526901245117,
        0.5720377564430237,
        -0.2206430435180664,
        0.7729321122169495
      ],
      "translation": [
        -0.6450788974761963,
        2.9667863845825195,
        3.7728426456451416
      ]
    },
    {
      "children": [
        2,
        3,
        4,
        5,
        6
      ],
      "name": "山_obj"
    },
    {
      "mesh": 0,
      "name": "中山1"
    },
    {
      "mesh": 1,
      "name": "大山2"
    },
    {
      "mesh": 2,
      "name": "中山2"
    },
    {
      "mesh": 3,
      "name": "小山"
    },
    {
      "mesh": 4,
      "name": "大山1"
    }
  ],
  "samplers": [
    {}
  ],
  "scenes": [
    {
      "nodes": [
        0,
        1
      ]
    }
  ],
  "textures": [
    {
      "name": "场景三-山02.png",
      "sampler": 0,
      "source": 0
    },
    {
      "name": "场景三-山01.png",
      "sampler": 0,
      "source": 1
    }
  ]
}