{
  "accessors": [
    {
      "bufferView": 0,
      "componentType": 5126,
      "count": 2546,
      "max": [
        1.8200047016143799,
        -1.4582198858261108,
        0.33231475949287415
      ],
      "min": [
        1.0997235774993896,
        -1.9382303953170776,
        -0.35762763023376465
      ],
      "name": "印泥/POSITION",
      "type": "VEC3"
    },
    {
      "bufferView": 0,
      "byteOffset": 12,
      "componentType": 5126,
      "count": 2546,
      "name": "印泥/NORMAL",
      "type": "VEC3"
    },
    {
      "bufferView": 0,
      "byteOffset": 24,
      "componentType": 5126,
      "count": 2546,
      "name": "印泥/TEXCOORD_0",
      "type": "VEC2"
    },
    {
      "bufferView": 1,
      "componentType": 5125,
      "count": 13152,
      "name": "印泥/INDICES",
      "type": "SCALAR"
    },
    {
      "bufferView": 2,
      "componentType": 5126,
      "count": 288,
      "max": [
        1.9623706340789795,
        0.7809323072433472,
        -0.7955490350723267
      ],
      "min": [
        0.8498958349227905,
        -0.7839850783348083,
        -1.8745328187942505
      ],
      "name": "克隆/POSITION",
      "type": "VEC3"
    },
    {
      "bufferView": 2,
      "byteOffset": 12,
      "componentType": 5126,
      "count": 288,
      "name": "克隆/NORMAL",
      "type": "VEC3"
    },
    {
      "bufferView": 2,
      "byteOffset": 24,
      "componentType": 5126,
      "count": 288,
      "name": "克隆/TEXCOORD_0",
      "type": "VEC2"
    },
    {
      "bufferView": 3,
      "componentType": 5125,
      "count": 432,
      "name": "克隆/INDICES",
      "type": "SCALAR"
    },
    {
      "bufferView": 4,
      "componentType": 5126,
      "count": 6101,
      "max": [
        2.0414905548095703,
        0.9281870126724243,
        -0.43683379888534546
      ],
      "min": [
        0.7697830200195313,
        -0.8665043711662292,
        -1.9553877115249634
      ],
      "name": "书_2/POSITION",
      "type": "VEC3"
    },
    {
      "bufferView": 4,
      "byteOffset": 12,
      "componentType": 5126,
      "count": 6101,
      "name": "书_2/NORMAL",
      "type": "VEC3"
    },
    {
      "bufferView": 4,
      "byteOffset": 24,
      "componentType": 5126,
      "count": 6101,
      "name": "书_2/TEXCOORD_0",
      "type": "VEC2"
    },
    {
      "bufferView": 5,
      "componentType": 5125,
      "count": 32352,
      "name": "书_2/INDICES",
      "type": "SCALAR"
    },
    {
      "bufferView": 6,
      "componentType": 5126,
      "count": 12,
      "max": [
        -0.2374437153339386,
        -0.756023108959198,
        -0.4054167568683624
      ],
      "min": [
        -1.6717268228530884,
        -2.295400381088257,
        -1.3192728757858276
      ],
      "name": "书_1_Material0/POSITION",
      "type": "VEC3"
    },
    {
      "bufferView": 6,
      "byteOffset": 12,
      "componentType": 5126,
      "count": 12,
      "name": "书_1_Material0/NORMAL",
      "type": "VEC3"
    },
    {
      "bufferView": 6,
      "byteOffset": 24,
      "componentType": 5126,
      "count": 12,
      "name": "书_1_Material0/TEXCOORD_0",
      "type": "VEC2"
    },
    {
      "bufferView": 7,
      "componentType": 5125,
      "count": 18,
      "name": "书_1_Material0/INDICES",
      "type": "SCALAR"
    },
    {
      "bufferView": 8,
      "componentType": 5126,
      "count": 76,
      "max": [
        -0.19631165266036987,
        -0.7096802592277527,
        -0.35607224702835083
      ],
      "min": [
        -1.7234101295471191,
        -2.345668077468872,
        -1.3651435375213623
      ],
      "name": "书_1_Material0/POSITION",
      "type": "VEC3"
    },
    {
      "bufferView": 8,
      "byteOffset": 12,
      "componentType": 5126,
      "count": 76,
      "name": "书_1_Material0/NORMAL",
      "type": "VEC3"
    },
    {
      "bufferView": 8,
      "byteOffset": 24,
      "componentType": 5126,
      "count": 76,
      "name": "书_1_Material0/TEXCOORD_0",
      "type": "VEC2"
    },
    {
      "bufferView": 9,
      "componentType": 5125,
      "count": 162,
      "name": "书_1_Material0/INDICES",
      "type": "SCALAR"
    },
    {
      "bufferView": 10,
      "componentType": 5126,
      "count": 559,
      "max": [
        0.7061435580253601,
        -0.5251877307891846,
        0.9356920719146729
      ],
      "min": [
        0.6520065069198608,
        -0.5792195796966553,
        0.8815944790840149
      ],
      "name": "球体_1/POSITION",
      "type": "VEC3"
    },
    {
      "bufferView": 10,
      "byteOffset": 12,
      "componentType": 5126,
      "count": 559,
      "name": "球体_1/NORMAL",
      "type": "VEC3"
    },
    {
      "bufferView": 10,
      "byteOffset": 24,
      "componentType": 5126,
      "count": 559,
      "name": "球体_1/TEXCOORD_0",
      "type": "VEC2"
    },
    {
      "bufferView": 11,
      "componentType": 5125,
      "count": 2880,
      "name": "球体_1/INDICES",
      "type": "SCALAR"
    },
    {
      "bufferView": 12,
      "componentType": 5126,
      "count": 336,
      "max": [
        0.8465178608894348,
        0.5393885970115662,
        0.849793553352356
      ],
      "min": [
        0.6305914521217346,
        -0.44174349308013916,
        0.21417081356048584
      ],
      "name": "克隆_1/POSITION",
      "type": "VEC3"
    },
    {
      "bufferView": 12,
      "byteOffset": 12,
      "componentType": 5126,
      "count": 336,
      "name": "克隆_1/NORMAL",
      "type": "VEC3"
    },
    {
      "bufferView": 12,
      "byteOffset": 24,
      "componentType": 5126,
      "count": 336,
      "name": "克隆_1/TEXCOORD_0",
      "type": "VEC2"
    },
    {
      "bufferView": 13,
      "componentType": 5125,
      "count": 504,
      "name": "克隆_1/INDICES",
      "type": "SCALAR"
    },
    {
      "bufferView": 14,
      "componentType": 5126,
      "count": 381,
      "max": [
        1.2732540369033813,
        0.8692933917045593,
        1.1625113487243652
      ],
      "min": [
        0.43228772282600403,
        -1.4484586715698242,
        -0.8880073428153992
      ],
      "name": "布尔_1/POSITION",
      "type": "VEC3"
    },
    {
      "bufferView": 14,
      "byteOffset": 12,
      "componentType": 5126,
      "count": 381,
      "name": "布尔_1/NORMAL",
      "type": "VEC3"
    },
    {
      "bufferView": 14,
      "byteOffset": 24,
      "componentType": 5126,
      "count": 381,
      "name": "布尔_1/TEXCOORD_0",
      "type": "VEC2"
    },
    {
      "bufferView": 15,
      "componentType": 5125,
      "count": 1422,
      "name": "布尔_1/INDICES",
      "type": "SCALAR"
    },
    {
      "bufferView": 16,
      "componentType": 5126,
      "count": 559,
      "max": [
        0.7061435580253601,
        -0.5251877307891846,
        0.9356920719146729
      ],
      "min": [
        0.6520065069198608,
        -0.5792195796966553,
        0.8815944790840149
      ],
      "name": "球体/POSITION",
      "type": "VEC3"
    },
    {
      "bufferView": 16,
      "byteOffset": 12,
      "componentType": 5126,
      "count": 559,
      "name": "球体/NORMAL",
      "type": "VEC3"
    },
    {
      "bufferView": 16,
      "byteOffset": 24,
      "componentType": 5126,
      "count": 559,
      "name": "球体/TEXCOORD_0",
      "type": "VEC2"
    },
    {
      "bufferView": 17,
      "componentType": 5125,
      "count": 2880,
      "name": "球体/INDICES",
      "type": "SCALAR"
    },
    {
      "bufferView": 18,
      "componentType": 5126,
      "count": 336,
      "max": [
        -0.2754296064376831,
        0.47927042841911316,
        0.576694905757904
      ],
      "min": [
        -0.4913560152053833,
        -0.5018616914749146,
        -0.05892781913280487
      ],
      "name": "克隆_2/POSITION",
      "type": "VEC3"
    },
    {
      "bufferView": 18,
      "byteOffset": 12,
      "componentType": 5126,
      "count": 336,
      "name": "克隆_2/NORMAL",
      "type": "VEC3"
    },
    {
      "bufferView": 18,
      "byteOffset": 24,
      "componentType": 5126,
      "count": 336,
      "name": "克隆_2/TEXCOORD_0",
      "type": "VEC2"
    },
    {
      "bufferView": 19,
      "componentType": 5125,
      "count": 504,
      "name": "克隆_2/INDICES",
      "type": "SCALAR"
    },
    {
      "bufferView": 20,
      "componentType": 5126,
      "count": 381,
      "max": [
        0.15130652487277985,
        0.8091751933097839,
        0.8894127011299133
      ],
      "min": [
        -0.689659833908081,
        -1.5085768699645996,
        -1.161105990409851
      ],
      "name": "布尔_1_2/POSITION",
      "type": "VEC3"
    },
    {
      "bufferView": 20,
      "byteOffset": 12,
      "componentType": 5126,
      "count": 381,
      "name": "布尔_1_2/NORMAL",
      "type": "VEC3"
    },
    {
      "bufferView": 20,
      "byteOffset": 24,
      "componentType": 5126,
      "count": 381,
      "name": "布尔_1_2/TEXCOORD_0",
      "type": "VEC2"
    },
    {
      "bufferView": 21,
      "componentType": 5125,
      "count": 1422,
      "name": "布尔_1_2/INDICES",
      "type": "SCALAR"
    },
    {
      "bufferView": 22,
      "componentType": 5126,
      "count": 559,
      "max": [
        0.13827697932720184,
        -0.5556161999702454,
        0.797464907169342
      ],
      "min": [
        0.08413992822170258,
        -0.6096479892730713,
        0.7433673143386841
      ],
      "name": "球体_1_1/POSITION",
      "type": "VEC3"
    },
    {
      "bufferView": 22,
      "byteOffset": 12,
      "componentType": 5126,
      "count": 559,
      "name": "球体_1_1/NORMAL",
      "type": "VEC3"
    },
    {
      "bufferView": 22,
      "byteOffset": 24,
      "componentType": 5126,
      "count": 559,
      "name": "球体_1_1/TEXCOORD_0",
      "type": "VEC2"
    },
    {
      "bufferView": 23,
      "componentType": 5125,
      "count": 2880,
      "name": "球体_1_1/INDICES",
      "type": "SCALAR"
    },
    {
      "bufferView": 24,
      "componentType": 5126,
      "count": 336,
      "max": [
        0.27865129709243774,
        0.5089601874351501,
        0.7115663886070251
      ],
      "min": [
        0.06272487342357635,
        -0.47217193245887756,
        0.07594367861747742
      ],
      "name": "克隆_3/POSITION",
      "type": "VEC3"
    },
    {
      "bufferView": 24,
      "byteOffset": 12,
      "componentType": 5126,
      "count": 336,
      "name": "克隆_3/NORMAL",
      "type": "VEC3"
    },
    {
      "bufferView": 24,
      "byteOffset": 24,
      "componentType": 5126,
      "count": 336,
      "name": "克隆_3/TEXCOORD_0",
      "type": "VEC2"
    },
    {
      "bufferView": 25,
      "componentType": 5125,
      "count": 504,
      "name": "克隆_3/INDICES",
      "type": "SCALAR"
    },
    {
      "bufferView": 26,
      "componentType": 5126,
      "count": 381,
      "max": [
        0.7053874135017395,
        0.8388649225234985,
        1.0242841243743896
      ],
      "min": [
        -0.13557890057563782,
        -1.4788870811462402,
        -1.02623450756073
      ],
      "name": "布尔_1_3/POSITION",
      "type": "VEC3"
    },
    {
      "bufferView": 26,
      "byteOffset": 12,
      "componentType": 5126,
      "count": 381,
      "name": "布尔_1_3/NORMAL",
      "type": "VEC3"
    },
    {
      "bufferView": 26,
      "byteOffset": 24,
      "componentType": 5126,
      "count": 381,
      "name": "布尔_1_3/TEXCOORD_0",
      "type": "VEC2"
    },
    {
      "bufferView": 27,
      "componentType": 5125,
      "count": 1422,
      "name": "布尔_1_3/INDICES",
      "type": "SCALAR"
    }
  ],
  "asset": {
    "copyright": "Copyright (c) 2018-2020 Chukong Technologies Inc.",
    "generator": "FBX-glTF-conv",
    "version": "2.0"
  },
  "bufferViews": [
    {
      "buffer": 0,
      "byteLength": 81472,
      "byteStride": 32,
      "name": "印泥",
      "target": 34962
    },
    {
      "buffer": 0,
      "byteLength": 52608,
      "byteOffset": 81472
    },
    {
      "buffer": 0,
      "byteLength": 9216,
      "byteOffset": 134080,
      "byteStride": 32,
      "name": "克隆",
      "target": 34962
    },
    {
      "buffer": 0,
      "byteLength": 1728,
      "byteOffset": 143296
    },
    {
      "buffer": 0,
      "byteLength": 195232,
      "byteOffset": 145024,
      "byteStride": 32,
      "name": "书_2",
      "target": 34962
    },
    {
      "buffer": 0,
      "byteLength": 129408,
      "byteOffset": 340256
    },
    {
      "buffer": 0,
      "byteLength": 384,
      "byteOffset": 469664,
      "byteStride": 32,
      "name": "书_1_Material0",
      "target": 34962
    },
    {
      "buffer": 0,
      "byteLength": 72,
      "byteOffset": 470048
    },
    {
      "buffer": 0,
      "byteLength": 2432,
      "byteOffset": 470120,
      "byteStride": 32,
      "name": "书_1_Material0",
      "target": 34962
    },
    {
      "buffer": 0,
      "byteLength": 648,
      "byteOffset": 472552
    },
    {
      "buffer": 0,
      "byteLength": 17888,
      "byteOffset": 473200,
      "byteStride": 32,
      "name": "球体_1",
      "target": 34962
    },
    {
      "buffer": 0,
      "byteLength": 11520,
      "byteOffset": 491088
    },
    {
      "buffer": 0,
      "byteLength": 10752,
      "byteOffset": 502608,
      "byteStride": 32,
      "name": "克隆_1",
      "target": 34962
    },
    {
      "buffer": 0,
      "byteLength": 2016,
      "byteOffset": 513360
    },
    {
      "buffer": 0,
      "byteLength": 12192,
      "byteOffset": 515376,
      "byteStride": 32,
      "name": "布尔_1",
      "target": 34962
    },
    {
      "buffer": 0,
      "byteLength": 5688,
      "byteOffset": 527568
    },
    {
      "buffer": 0,
      "byteLength": 17888,
      "byteOffset": 533256,
      "byteStride": 32,
      "name": "球体",
      "target": 34962
    },
    {
      "buffer": 0,
      "byteLength": 11520,
      "byteOffset": 551144
    },
    {
      "buffer": 0,
      "byteLength": 10752,
      "byteOffset": 562664,
      "byteStride": 32,
      "name": "克隆_2",
      "target": 34962
    },
    {
      "buffer": 0,
      "byteLength": 2016,
      "byteOffset": 573416
    },
    {
      "buffer": 0,
      "byteLength": 12192,
      "byteOffset": 575432,
      "byteStride": 32,
      "name": "布尔_1_2",
      "target": 34962
    },
    {
      "buffer": 0,
      "byteLength": 5688,
      "byteOffset": 587624
    },
    {
      "buffer": 0,
      "byteLength": 17888,
      "byteOffset": 593312,
      "byteStride": 32,
      "name": "球体_1_1",
      "target": 34962
    },
    {
      "buffer": 0,
      "byteLength": 11520,
      "byteOffset": 611200
    },
    {
      "buffer": 0,
      "byteLength": 10752,
      "byteOffset": 622720,
      "byteStride": 32,
      "name": "克隆_3",
      "target": 34962
    },
    {
      "buffer": 0,
      "byteLength": 2016,
      "byteOffset": 633472
    },
    {
      "buffer": 0,
      "byteLength": 12192,
      "byteOffset": 635488,
      "byteStride": 32,
      "name": "布尔_1_3",
      "target": 34962
    },
    {
      "buffer": 0,
      "byteLength": 5688,
      "byteOffset": 647680
    }
  ],
  "buffers": [
    {
      "byteLength": 653368,
      "uri": "out.bin"
    }
  ],
  "materials": [
    {
      "name": "材质.1",
      "pbrMetallicRoughness": {
        "baseColorFactor": [
          0.9960784316062927,
          0.4588235318660736,
          0.41960784792900085,
          1.0
        ],
        "metallicFactor": 0.4000000059604645,
        "roughnessFactor": 0.24253562092781067
      }
    },
    {
      "name": "材质.2",
      "pbrMetallicRoughness": {
        "baseColorFactor": [
          0.800000011920929,
          0.800000011920929,
          0.800000011920929,
          1.0
        ],
        "metallicFactor": 0.4000000059604645,
        "roughnessFactor": 0.24253562092781067
      }
    },
    {
      "name": "材质.1_1",
      "pbrMetallicRoughness": {
        "baseColorFactor": [
          0.4099999964237213,
          0.6754999756813049,
          1.0,
          1.0
        ],
        "metallicFactor": 0.4000000059604645,
        "roughnessFactor": 0.24253562092781067
      }
    },
    {
      "name": "材质.1_2",
      "pbrMetallicRoughness": {
        "baseColorFactor": [
          1.0,
          0.7019608020782471,
          0.12156862765550613,
          1.0
        ],
        "metallicFactor": 0.4000000059604645,
        "roughnessFactor": 0.24253562092781067
      }
    },
    {
      "name": "材质",
      "pbrMetallicRoughness": {
        "baseColorFactor": [
          1.0,
          0.0,
          0.0,
          1.0
        ],
        "metallicFactor": 0.4000000059604645,
        "roughnessFactor": 0.24253562092781067
      }
    },
    {
      "name": "材质.1_3",
      "pbrMetallicRoughness": {
        "baseColorFactor": [
          0.5199999809265137,
          0.5199999809265137,
          0.5199999809265137,
          1.0
        ],
        "metallicFactor": 0.4000000059604645,
        "roughnessFactor": 0.24253562092781067
      }
    },
    {
      "name": "材质.1_4",
      "pbrMetallicRoughness": {
        "baseColorFactor": [
          0.1764705926179886,
          0.3921568691730499,
          0.95686274766922,
          1.0
        ],
        "metallicFactor": 0.4000000059604645,
        "roughnessFactor": 0.24253562092781067
      }
    }
  ],
  "meshes": [
    {
      "name": "印泥",
      "primitives": [
        {
          "attributes": {
            "NORMAL": 1,
            "POSITION": 0,
            "TEXCOORD_0": 2
          },
          "indices": 3,
          "material": 0
        }
      ]
    },
    {
      "name": "克隆",
      "primitives": [
        {
          "attributes": {
            "NORMAL": 5,
            "POSITION": 4,
            "TEXCOORD_0": 6
          },
          "indices": 7,
          "material": 1
        }
      ]
    },
    {
      "name": "书_2",
      "primitives": [
        {
          "attributes": {
            "NORMAL": 9,
            "POSITION": 8,
            "TEXCOORD_0": 10
          },
          "indices": 11,
          "material": 2
        }
      ]
    },
    {
      "name": "书_1_Material0",
      "primitives": [
        {
          "attributes": {
            "NORMAL": 13,
            "POSITION": 12,
            "TEXCOORD_0": 14
          },
          "indices": 15,
          "material": 1
        },
        {
          "attributes": {
            "NORMAL": 17,
            "POSITION": 16,
            "TEXCOORD_0": 18
          },
          "indices": 19,
          "material": 3
        }
      ]
    },
    {
      "name": "球体_1",
      "primitives": [
        {
          "attributes": {
            "NORMAL": 21,
            "POSITION": 20,
            "TEXCOORD_0": 22
          },
          "indices": 23,
          "material": 4
        }
      ]
    },
    {
      "name": "克隆_1",
      "primitives": [
        {
          "attributes": {
            "NORMAL": 25,
            "POSITION": 24,
            "TEXCOORD_0": 26
          },
          "indices": 27,
          "material": 5
        }
      ]
    },
    {
      "name": "布尔_1",
      "primitives": [
        {
          "attributes": {
            "NORMAL": 29,
            "POSITION": 28,
            "TEXCOORD_0": 30
          },
          "indices": 31,
          "material": 5
        }
      ]
    },
    {
      "name": "球体",
      "primitives": [
        {
          "attributes": {
            "NORMAL": 33,
            "POSITION": 32,
            "TEXCOORD_0": 34
          },
          "indices": 35,
          "material": 4
        }
      ]
    },
    {
      "name": "克隆_2",
      "primitives": [
        {
          "attributes": {
            "NORMAL": 37,
            "POSITION": 36,
            "TEXCOORD_0": 38
          },
          "indices": 39,
          "material": 5
        }
      ]
    },
    {
      "name": "布尔_1_2",
      "primitives": [
        {
          "attributes": {
            "NORMAL": 41,
            "POSITION": 40,
            "TEXCOORD_0": 42
          },
          "indices": 43,
          "material": 5
        }
      ]
    },
    {
      "name": "球体_1_1",
      "primitives": [
        {
          "attributes": {
            "NORMAL": 45,
            "POSITION": 44,
            "TEXCOORD_0": 46
          },
          "indices": 47,
          "material": 4
        }
      ]
    },
    {
      "name": "克隆_3",
      "primitives": [
        {
          "attributes": {
            "NORMAL": 49,
            "POSITION": 48,
            "TEXCOORD_0": 50
          },
          "indices": 51,
          "material": 6
        }
      ]
    },
    {
      "name": "布尔_1_3",
      "primitives": [
        {
          "attributes": {
            "NORMAL": 53,
            "POSITION": 52,
            "TEXCOORD_0": 54
          },
          "indices": 55,
          "material": 6
        }
      ]
    }
  ],
  "nodes": [
    {
      "name": "Cinema_4D_编辑器",
      "rotation": [
        -0.09125819802284241,
        0.6593592762947083,
        -0.10231158137321472,
        0.7392222881317139
      ],
      "translation": [
        -0.4515240788459778,
        1.8169564008712769,
        6.596885681152344
      ]
    },
    {
      "children": [
        2,
        3,
        4,
        5,
        6,
        7,
        8,
        9,
        10,
        11,
        12,
        13,
        14
      ],
      "name": "机柜02_obj"
    },
    {
      "mesh": 0,
      "name": "印泥"
    },
    {
      "mesh": 1,
      "name": "克隆"
    },
    {
      "mesh": 2,
      "name": "书_2"
    },
    {
      "mesh": 3,
      "name": "书_1"
    },
    {
      "mesh": 4,
      "name": "球体_1"
    },
    {
      "mesh": 5,
      "name": "克隆_1"
    },
    {
      "mesh": 6,
      "name": "布尔_1"
    },
    {
      "mesh": 7,
      "name": "球体"
    },
    {
      "mesh": 8,
      "name": "克隆_2"
    },
    {
      "mesh": 9,
      "name": "布尔_1_2"
    },
    {
      "mesh": 10,
      "name": "球体_1_1"
    },
    {
      "mesh": 11,
      "name": "克隆_3"
    },
    {
      "mesh": 12,
      "name": "布尔_1_3"
    }
  ],
  "scenes": [
    {
      "nodes": [
        0,
        1
      ]
    }
  ]
}